solid AMIinterface_coarse
   facet normal 9.996397e-001 2.684154e-002 0.000000e+000
      outer loop
         vertex 4.983787e+000 4.023328e-001 5.000000e-001
         vertex 5.000000e+000 1.836970e-015 5.000000e-001
         vertex 5.000000e+000 6.123234e-016 -5.000000e-001
      endloop
   endfacet
   facet normal 9.996397e-001 -2.684154e-002 0.000000e+000
      outer loop
         vertex 5.000000e+000 6.123234e-016 -5.000000e-001
         vertex 5.000000e+000 1.836970e-015 5.000000e-001
         vertex 4.983787e+000 -4.023328e-001 -5.000000e-001
      endloop
   endfacet
   facet normal 9.985580e-001 5.368308e-002 0.000000e+000
      outer loop
         vertex 5.000000e+000 6.123234e-016 -5.000000e-001
         vertex 4.983787e+000 4.023328e-001 -5.000000e-001
         vertex 4.983787e+000 4.023328e-001 5.000000e-001
      endloop
   endfacet
   facet normal 9.910081e-001 1.338019e-001 0.000000e+000
      outer loop
         vertex 4.983787e+000 4.023328e-001 5.000000e-001
         vertex 4.983787e+000 4.023328e-001 -5.000000e-001
         vertex 4.854709e+000 1.196578e+000 -5.000000e-001
      endloop
   endfacet
   facet normal 9.823781e-001 1.869046e-001 0.000000e+000
      outer loop
         vertex 4.983787e+000 4.023328e-001 5.000000e-001
         vertex 4.854709e+000 1.196578e+000 -5.000000e-001
         vertex 4.854709e+000 1.196578e+000 5.000000e-001
      endloop
   endfacet
   facet normal 9.567115e-001 2.910380e-001 0.000000e+000
      outer loop
         vertex 4.854709e+000 1.196578e+000 5.000000e-001
         vertex 4.854709e+000 1.196578e+000 -5.000000e-001
         vertex 4.599897e+000 1.959833e+000 -5.000000e-001
      endloop
   endfacet
   facet normal 9.396749e-001 3.420688e-001 0.000000e+000
      outer loop
         vertex 4.854709e+000 1.196578e+000 5.000000e-001
         vertex 4.599897e+000 1.959833e+000 -5.000000e-001
         vertex 4.599897e+000 1.959833e+000 5.000000e-001
      endloop
   endfacet
   facet normal 8.976365e-001 4.407365e-001 0.000000e+000
      outer loop
         vertex 4.599897e+000 1.959833e+000 5.000000e-001
         vertex 4.599897e+000 1.959833e+000 -5.000000e-001
         vertex 4.225950e+000 2.672329e+000 -5.000000e-001
      endloop
   endfacet
   facet normal 8.726347e-001 4.883735e-001 0.000000e+000
      outer loop
         vertex 4.599897e+000 1.959833e+000 5.000000e-001
         vertex 4.225950e+000 2.672329e+000 -5.000000e-001
         vertex 4.225950e+000 2.672329e+000 5.000000e-001
      endloop
   endfacet
   facet normal 8.153133e-001 5.790201e-001 0.000000e+000
      outer loop
         vertex 4.225950e+000 2.672329e+000 5.000000e-001
         vertex 4.225950e+000 2.672329e+000 -5.000000e-001
         vertex 3.742554e+000 3.315613e+000 -5.000000e-001
      endloop
   endfacet
   facet normal 7.829937e-001 6.220297e-001 0.000000e+000
      outer loop
         vertex 4.225950e+000 2.672329e+000 5.000000e-001
         vertex 3.742554e+000 3.315613e+000 -5.000000e-001
         vertex 3.742554e+000 3.315613e+000 5.000000e-001
      endloop
   endfacet
   facet normal 7.118738e-001 7.023074e-001 0.000000e+000
      outer loop
         vertex 3.742554e+000 3.315613e+000 5.000000e-001
         vertex 3.742554e+000 3.315613e+000 -5.000000e-001
         vertex 3.162227e+000 3.873025e+000 -5.000000e-001
      endloop
   endfacet
   facet normal 6.730735e-001 7.395756e-001 0.000000e+000
      outer loop
         vertex 3.742554e+000 3.315613e+000 5.000000e-001
         vertex 3.162227e+000 3.873025e+000 -5.000000e-001
         vertex 3.162227e+000 3.873025e+000 5.000000e-001
      endloop
   endfacet
   facet normal 5.899972e-001 8.074052e-001 0.000000e+000
      outer loop
         vertex 3.162227e+000 3.873025e+000 5.000000e-001
         vertex 3.162227e+000 3.873025e+000 -5.000000e-001
         vertex 2.500000e+000 4.330127e+000 -5.000000e-001
      endloop
   endfacet
   facet normal 5.457212e-001 8.379669e-001 0.000000e+000
      outer loop
         vertex 3.162227e+000 3.873025e+000 5.000000e-001
         vertex 2.500000e+000 4.330127e+000 -5.000000e-001
         vertex 2.500000e+000 4.330127e+000 5.000000e-001
      endloop
   endfacet
   facet normal 4.528400e-001 8.915918e-001 0.000000e+000
      outer loop
         vertex 2.500000e+000 4.330127e+000 5.000000e-001
         vertex 2.500000e+000 4.330127e+000 -5.000000e-001
         vertex 1.773024e+000 4.675081e+000 -5.000000e-001
      endloop
   endfacet
   facet normal 4.042349e-001 9.146552e-001 0.000000e+000
      outer loop
         vertex 2.500000e+000 4.330127e+000 5.000000e-001
         vertex 1.773024e+000 4.675081e+000 -5.000000e-001
         vertex 1.773024e+000 4.675081e+000 5.000000e-001
      endloop
   endfacet
   facet normal 3.039545e-001 9.526865e-001 0.000000e+000
      outer loop
         vertex 1.773024e+000 4.675081e+000 5.000000e-001
         vertex 1.773024e+000 4.675081e+000 -5.000000e-001
         vertex 1.000129e+000 4.898953e+000 -5.000000e-001
      endloop
   endfacet
   facet normal 2.522792e-001 9.676545e-001 0.000000e+000
      outer loop
         vertex 1.773024e+000 4.675081e+000 5.000000e-001
         vertex 1.000129e+000 4.898953e+000 -5.000000e-001
         vertex 1.000129e+000 4.898953e+000 5.000000e-001
      endloop
   endfacet
   facet normal 1.471967e-001 9.891073e-001 0.000000e+000
      outer loop
         vertex 1.000129e+000 4.898953e+000 5.000000e-001
         vertex 1.000129e+000 4.898953e+000 -5.000000e-001
         vertex 2.013297e-001 4.995945e+000 -5.000000e-001
      endloop
   endfacet
   facet normal 9.378948e-002 9.955921e-001 0.000000e+000
      outer loop
         vertex 1.000129e+000 4.898953e+000 5.000000e-001
         vertex 2.013297e-001 4.995945e+000 -5.000000e-001
         vertex 2.013297e-001 4.995945e+000 5.000000e-001
      endloop
   endfacet
   facet normal -1.337347e-002 9.999106e-001 0.000000e+000
      outer loop
         vertex 2.013297e-001 4.995945e+000 5.000000e-001
         vertex 2.013297e-001 4.995945e+000 -5.000000e-001
         vertex -6.026834e-001 4.963544e+000 -5.000000e-001
      endloop
   endfacet
   facet normal -6.712927e-002 9.977443e-001 0.000000e+000
      outer loop
         vertex 2.013297e-001 4.995945e+000 5.000000e-001
         vertex -6.026834e-001 4.963544e+000 -5.000000e-001
         vertex -6.026834e-001 4.963544e+000 5.000000e-001
      endloop
   endfacet
   facet normal -1.735972e-001 9.848167e-001 0.000000e+000
      outer loop
         vertex -6.026834e-001 4.963544e+000 5.000000e-001
         vertex -6.026834e-001 4.963544e+000 -5.000000e-001
         vertex -1.391087e+000 4.802590e+000 -5.000000e-001
      endloop
   endfacet
   facet normal -2.263094e-001 9.740555e-001 0.000000e+000
      outer loop
         vertex -6.026834e-001 4.963544e+000 5.000000e-001
         vertex -1.391087e+000 4.802590e+000 -5.000000e-001
         vertex -1.391087e+000 4.802590e+000 5.000000e-001
      endloop
   endfacet
   facet normal -3.293249e-001 9.442167e-001 0.000000e+000
      outer loop
         vertex -1.391087e+000 4.802590e+000 5.000000e-001
         vertex -1.391087e+000 4.802590e+000 -5.000000e-001
         vertex -2.143463e+000 4.517252e+000 -5.000000e-001
      endloop
   endfacet
   facet normal -3.796282e-001 9.251391e-001 0.000000e+000
      outer loop
         vertex -1.391087e+000 4.802590e+000 5.000000e-001
         vertex -2.143463e+000 4.517252e+000 -5.000000e-001
         vertex -2.143463e+000 4.517252e+000 5.000000e-001
      endloop
   endfacet
   facet normal -4.765233e-001 8.791618e-001 0.000000e+000
      outer loop
         vertex -2.143463e+000 4.517252e+000 5.000000e-001
         vertex -2.143463e+000 4.517252e+000 -5.000000e-001
         vertex -2.840324e+000 4.114919e+000 -5.000000e-001
      endloop
   endfacet
   facet normal -5.231149e-001 8.522622e-001 0.000000e+000
      outer loop
         vertex -2.143463e+000 4.517252e+000 5.000000e-001
         vertex -2.840324e+000 4.114919e+000 -5.000000e-001
         vertex -2.840324e+000 4.114919e+000 5.000000e-001
      endloop
   endfacet
   facet normal -6.113799e-001 7.913373e-001 0.000000e+000
      outer loop
         vertex -2.840324e+000 4.114919e+000 5.000000e-001
         vertex -2.840324e+000 4.114919e+000 -5.000000e-001
         vertex -3.463622e+000 3.606012e+000 -5.000000e-001
      endloop
   endfacet
   facet normal -6.530532e-001 7.573121e-001 0.000000e+000
      outer loop
         vertex -2.840324e+000 4.114919e+000 5.000000e-001
         vertex -3.463622e+000 3.606012e+000 -5.000000e-001
         vertex -3.463622e+000 3.606012e+000 5.000000e-001
      endloop
   endfacet
   facet normal -7.304021e-001 6.830174e-001 0.000000e+000
      outer loop
         vertex -3.463622e+000 3.606012e+000 5.000000e-001
         vertex -3.463622e+000 3.606012e+000 -5.000000e-001
         vertex -3.997214e+000 3.003711e+000 -5.000000e-001
      endloop
   endfacet
   facet normal -7.660777e-001 6.427480e-001 0.000000e+000
      outer loop
         vertex -3.463622e+000 3.606012e+000 5.000000e-001
         vertex -3.997214e+000 3.003711e+000 -5.000000e-001
         vertex -3.997214e+000 3.003711e+000 5.000000e-001
      endloop
   endfacet
   facet normal -8.305073e-001 5.570078e-001 0.000000e+000
      outer loop
         vertex -3.997214e+000 3.003711e+000 5.000000e-001
         vertex -3.997214e+000 3.003711e+000 -5.000000e-001
         vertex -4.427280e+000 2.323616e+000 -5.000000e-001
      endloop
   endfacet
   facet normal -8.592612e-001 5.115371e-001 0.000000e+000
      outer loop
         vertex -3.997214e+000 3.003711e+000 5.000000e-001
         vertex -4.427280e+000 2.323616e+000 -5.000000e-001
         vertex -4.427280e+000 2.323616e+000 5.000000e-001
      endloop
   endfacet
   facet normal -9.091027e-001 4.165720e-001 0.000000e+000
      outer loop
         vertex -4.427280e+000 2.323616e+000 5.000000e-001
         vertex -4.427280e+000 2.323616e+000 -5.000000e-001
         vertex -4.742682e+000 1.583340e+000 -5.000000e-001
      endloop
   endfacet
   facet normal -9.301903e-001 3.670776e-001 0.000000e+000
      outer loop
         vertex -4.427280e+000 2.323616e+000 5.000000e-001
         vertex -4.742682e+000 1.583340e+000 -5.000000e-001
         vertex -4.742682e+000 1.583340e+000 5.000000e-001
      endloop
   endfacet
   facet normal -9.641530e-001 2.653471e-001 0.000000e+000
      outer loop
         vertex -4.742682e+000 1.583340e+000 5.000000e-001
         vertex -4.742682e+000 1.583340e+000 -5.000000e-001
         vertex -4.935251e+000 8.020564e-001 -5.000000e-001
      endloop
   endfacet
   facet normal -9.770280e-001 2.131110e-001 0.000000e+000
      outer loop
         vertex -4.742682e+000 1.583340e+000 5.000000e-001
         vertex -4.935251e+000 8.020564e-001 -5.000000e-001
         vertex -4.935251e+000 8.020564e-001 5.000000e-001
      endloop
   endfacet
   facet normal -9.942321e-001 1.072499e-001 0.000000e+000
      outer loop
         vertex -4.935251e+000 8.020564e-001 5.000000e-001
         vertex -4.935251e+000 8.020564e-001 -5.000000e-001
         vertex -5.000000e+000 0.000000e+000 -5.000000e-001
      endloop
   endfacet
   facet normal -9.985611e-001 5.362497e-002 0.000000e+000
      outer loop
         vertex -4.935251e+000 8.020564e-001 5.000000e-001
         vertex -5.000000e+000 0.000000e+000 -5.000000e-001
         vertex -5.000000e+000 0.000000e+000 5.000000e-001
      endloop
   endfacet
   facet normal -9.985611e-001 -5.362497e-002 0.000000e+000
      outer loop
         vertex -5.000000e+000 0.000000e+000 5.000000e-001
         vertex -5.000000e+000 0.000000e+000 -5.000000e-001
         vertex -4.935251e+000 -8.020564e-001 -5.000000e-001
      endloop
   endfacet
   facet normal -9.942321e-001 -1.072499e-001 0.000000e+000
      outer loop
         vertex -5.000000e+000 0.000000e+000 5.000000e-001
         vertex -4.935251e+000 -8.020564e-001 -5.000000e-001
         vertex -4.935251e+000 -8.020564e-001 5.000000e-001
      endloop
   endfacet
   facet normal -9.770280e-001 -2.131110e-001 0.000000e+000
      outer loop
         vertex -4.935251e+000 -8.020564e-001 5.000000e-001
         vertex -4.935251e+000 -8.020564e-001 -5.000000e-001
         vertex -4.742682e+000 -1.583340e+000 -5.000000e-001
      endloop
   endfacet
   facet normal -9.641530e-001 -2.653471e-001 0.000000e+000
      outer loop
         vertex -4.935251e+000 -8.020564e-001 5.000000e-001
         vertex -4.742682e+000 -1.583340e+000 -5.000000e-001
         vertex -4.742682e+000 -1.583340e+000 5.000000e-001
      endloop
   endfacet
   facet normal -9.301903e-001 -3.670776e-001 0.000000e+000
      outer loop
         vertex -4.742682e+000 -1.583340e+000 5.000000e-001
         vertex -4.742682e+000 -1.583340e+000 -5.000000e-001
         vertex -4.427280e+000 -2.323616e+000 -5.000000e-001
      endloop
   endfacet
   facet normal -9.091027e-001 -4.165720e-001 0.000000e+000
      outer loop
         vertex -4.742682e+000 -1.583340e+000 5.000000e-001
         vertex -4.427280e+000 -2.323616e+000 -5.000000e-001
         vertex -4.427280e+000 -2.323616e+000 5.000000e-001
      endloop
   endfacet
   facet normal -8.592612e-001 -5.115371e-001 0.000000e+000
      outer loop
         vertex -4.427280e+000 -2.323616e+000 5.000000e-001
         vertex -4.427280e+000 -2.323616e+000 -5.000000e-001
         vertex -3.997214e+000 -3.003711e+000 -5.000000e-001
      endloop
   endfacet
   facet normal -8.305073e-001 -5.570078e-001 0.000000e+000
      outer loop
         vertex -4.427280e+000 -2.323616e+000 5.000000e-001
         vertex -3.997214e+000 -3.003711e+000 -5.000000e-001
         vertex -3.997214e+000 -3.003711e+000 5.000000e-001
      endloop
   endfacet
   facet normal -7.660777e-001 -6.427480e-001 0.000000e+000
      outer loop
         vertex -3.997214e+000 -3.003711e+000 5.000000e-001
         vertex -3.997214e+000 -3.003711e+000 -5.000000e-001
         vertex -3.463622e+000 -3.606012e+000 -5.000000e-001
      endloop
   endfacet
   facet normal -7.304021e-001 -6.830174e-001 0.000000e+000
      outer loop
         vertex -3.997214e+000 -3.003711e+000 5.000000e-001
         vertex -3.463622e+000 -3.606012e+000 -5.000000e-001
         vertex -3.463622e+000 -3.606012e+000 5.000000e-001
      endloop
   endfacet
   facet normal -6.530532e-001 -7.573121e-001 0.000000e+000
      outer loop
         vertex -3.463622e+000 -3.606012e+000 5.000000e-001
         vertex -3.463622e+000 -3.606012e+000 -5.000000e-001
         vertex -2.840324e+000 -4.114919e+000 -5.000000e-001
      endloop
   endfacet
   facet normal -6.113799e-001 -7.913373e-001 0.000000e+000
      outer loop
         vertex -3.463622e+000 -3.606012e+000 5.000000e-001
         vertex -2.840324e+000 -4.114919e+000 -5.000000e-001
         vertex -2.840324e+000 -4.114919e+000 5.000000e-001
      endloop
   endfacet
   facet normal -5.231149e-001 -8.522622e-001 0.000000e+000
      outer loop
         vertex -2.840324e+000 -4.114919e+000 5.000000e-001
         vertex -2.840324e+000 -4.114919e+000 -5.000000e-001
         vertex -2.143463e+000 -4.517252e+000 -5.000000e-001
      endloop
   endfacet
   facet normal -4.765233e-001 -8.791618e-001 0.000000e+000
      outer loop
         vertex -2.840324e+000 -4.114919e+000 5.000000e-001
         vertex -2.143463e+000 -4.517252e+000 -5.000000e-001
         vertex -2.143463e+000 -4.517252e+000 5.000000e-001
      endloop
   endfacet
   facet normal -3.796282e-001 -9.251391e-001 0.000000e+000
      outer loop
         vertex -2.143463e+000 -4.517252e+000 5.000000e-001
         vertex -2.143463e+000 -4.517252e+000 -5.000000e-001
         vertex -1.391087e+000 -4.802590e+000 -5.000000e-001
      endloop
   endfacet
   facet normal -3.293249e-001 -9.442167e-001 0.000000e+000
      outer loop
         vertex -2.143463e+000 -4.517252e+000 5.000000e-001
         vertex -1.391087e+000 -4.802590e+000 -5.000000e-001
         vertex -1.391087e+000 -4.802590e+000 5.000000e-001
      endloop
   endfacet
   facet normal -2.263094e-001 -9.740555e-001 0.000000e+000
      outer loop
         vertex -1.391087e+000 -4.802590e+000 5.000000e-001
         vertex -1.391087e+000 -4.802590e+000 -5.000000e-001
         vertex -6.026834e-001 -4.963544e+000 -5.000000e-001
      endloop
   endfacet
   facet normal -1.735972e-001 -9.848167e-001 0.000000e+000
      outer loop
         vertex -1.391087e+000 -4.802590e+000 5.000000e-001
         vertex -6.026834e-001 -4.963544e+000 -5.000000e-001
         vertex -6.026834e-001 -4.963544e+000 5.000000e-001
      endloop
   endfacet
   facet normal -6.712927e-002 -9.977443e-001 0.000000e+000
      outer loop
         vertex -6.026834e-001 -4.963544e+000 5.000000e-001
         vertex -6.026834e-001 -4.963544e+000 -5.000000e-001
         vertex 2.013297e-001 -4.995945e+000 -5.000000e-001
      endloop
   endfacet
   facet normal -1.337347e-002 -9.999106e-001 0.000000e+000
      outer loop
         vertex -6.026834e-001 -4.963544e+000 5.000000e-001
         vertex 2.013297e-001 -4.995945e+000 -5.000000e-001
         vertex 2.013297e-001 -4.995945e+000 5.000000e-001
      endloop
   endfacet
   facet normal 9.378948e-002 -9.955921e-001 0.000000e+000
      outer loop
         vertex 2.013297e-001 -4.995945e+000 5.000000e-001
         vertex 2.013297e-001 -4.995945e+000 -5.000000e-001
         vertex 1.000129e+000 -4.898953e+000 -5.000000e-001
      endloop
   endfacet
   facet normal 1.471967e-001 -9.891073e-001 0.000000e+000
      outer loop
         vertex 2.013297e-001 -4.995945e+000 5.000000e-001
         vertex 1.000129e+000 -4.898953e+000 -5.000000e-001
         vertex 1.000129e+000 -4.898953e+000 5.000000e-001
      endloop
   endfacet
   facet normal 2.522792e-001 -9.676545e-001 0.000000e+000
      outer loop
         vertex 1.000129e+000 -4.898953e+000 5.000000e-001
         vertex 1.000129e+000 -4.898953e+000 -5.000000e-001
         vertex 1.773024e+000 -4.675081e+000 -5.000000e-001
      endloop
   endfacet
   facet normal 3.039545e-001 -9.526865e-001 0.000000e+000
      outer loop
         vertex 1.000129e+000 -4.898953e+000 5.000000e-001
         vertex 1.773024e+000 -4.675081e+000 -5.000000e-001
         vertex 1.773024e+000 -4.675081e+000 5.000000e-001
      endloop
   endfacet
   facet normal 4.042349e-001 -9.146552e-001 0.000000e+000
      outer loop
         vertex 1.773024e+000 -4.675081e+000 5.000000e-001
         vertex 1.773024e+000 -4.675081e+000 -5.000000e-001
         vertex 2.500000e+000 -4.330127e+000 -5.000000e-001
      endloop
   endfacet
   facet normal 4.528400e-001 -8.915918e-001 0.000000e+000
      outer loop
         vertex 1.773024e+000 -4.675081e+000 5.000000e-001
         vertex 2.500000e+000 -4.330127e+000 -5.000000e-001
         vertex 2.500000e+000 -4.330127e+000 5.000000e-001
      endloop
   endfacet
   facet normal 5.457212e-001 -8.379669e-001 0.000000e+000
      outer loop
         vertex 2.500000e+000 -4.330127e+000 5.000000e-001
         vertex 2.500000e+000 -4.330127e+000 -5.000000e-001
         vertex 3.162227e+000 -3.873025e+000 -5.000000e-001
      endloop
   endfacet
   facet normal 5.899972e-001 -8.074052e-001 0.000000e+000
      outer loop
         vertex 2.500000e+000 -4.330127e+000 5.000000e-001
         vertex 3.162227e+000 -3.873025e+000 -5.000000e-001
         vertex 3.162227e+000 -3.873025e+000 5.000000e-001
      endloop
   endfacet
   facet normal 6.730735e-001 -7.395756e-001 0.000000e+000
      outer loop
         vertex 3.162227e+000 -3.873025e+000 5.000000e-001
         vertex 3.162227e+000 -3.873025e+000 -5.000000e-001
         vertex 3.742554e+000 -3.315613e+000 -5.000000e-001
      endloop
   endfacet
   facet normal 7.118738e-001 -7.023074e-001 0.000000e+000
      outer loop
         vertex 3.162227e+000 -3.873025e+000 5.000000e-001
         vertex 3.742554e+000 -3.315613e+000 -5.000000e-001
         vertex 3.742554e+000 -3.315613e+000 5.000000e-001
      endloop
   endfacet
   facet normal 7.829937e-001 -6.220297e-001 0.000000e+000
      outer loop
         vertex 3.742554e+000 -3.315613e+000 5.000000e-001
         vertex 3.742554e+000 -3.315613e+000 -5.000000e-001
         vertex 4.225950e+000 -2.672329e+000 -5.000000e-001
      endloop
   endfacet
   facet normal 8.153133e-001 -5.790201e-001 0.000000e+000
      outer loop
         vertex 3.742554e+000 -3.315613e+000 5.000000e-001
         vertex 4.225950e+000 -2.672329e+000 -5.000000e-001
         vertex 4.225950e+000 -2.672329e+000 5.000000e-001
      endloop
   endfacet
   facet normal 8.726347e-001 -4.883735e-001 0.000000e+000
      outer loop
         vertex 4.225950e+000 -2.672329e+000 5.000000e-001
         vertex 4.225950e+000 -2.672329e+000 -5.000000e-001
         vertex 4.599897e+000 -1.959833e+000 -5.000000e-001
      endloop
   endfacet
   facet normal 8.976365e-001 -4.407365e-001 0.000000e+000
      outer loop
         vertex 4.225950e+000 -2.672329e+000 5.000000e-001
         vertex 4.599897e+000 -1.959833e+000 -5.000000e-001
         vertex 4.599897e+000 -1.959833e+000 5.000000e-001
      endloop
   endfacet
   facet normal 9.396749e-001 -3.420688e-001 0.000000e+000
      outer loop
         vertex 4.599897e+000 -1.959833e+000 5.000000e-001
         vertex 4.599897e+000 -1.959833e+000 -5.000000e-001
         vertex 4.854709e+000 -1.196578e+000 -5.000000e-001
      endloop
   endfacet
   facet normal 9.567115e-001 -2.910380e-001 0.000000e+000
      outer loop
         vertex 4.599897e+000 -1.959833e+000 5.000000e-001
         vertex 4.854709e+000 -1.196578e+000 -5.000000e-001
         vertex 4.854709e+000 -1.196578e+000 5.000000e-001
      endloop
   endfacet
   facet normal 9.823781e-001 -1.869046e-001 0.000000e+000
      outer loop
         vertex 4.854709e+000 -1.196578e+000 5.000000e-001
         vertex 4.854709e+000 -1.196578e+000 -5.000000e-001
         vertex 4.983787e+000 -4.023328e-001 -5.000000e-001
      endloop
   endfacet
   facet normal 9.910081e-001 -1.338019e-001 0.000000e+000
      outer loop
         vertex 4.854709e+000 -1.196578e+000 5.000000e-001
         vertex 4.983787e+000 -4.023328e-001 -5.000000e-001
         vertex 4.983787e+000 -4.023328e-001 5.000000e-001
      endloop
   endfacet
   facet normal 9.985580e-001 -5.368308e-002 0.000000e+000
      outer loop
         vertex 4.983787e+000 -4.023328e-001 5.000000e-001
         vertex 4.983787e+000 -4.023328e-001 -5.000000e-001
         vertex 5.000000e+000 1.836970e-015 5.000000e-001
      endloop
   endfacet
   facet normal 0.000000e+000 0.000000e+000 1.000000e+000
      outer loop
         vertex 5.000000e+000 6.123234e-016 5.000000e-001
         vertex -5.000000e+000 0.000000e+000 5.000000e-001
         vertex 4.983787e+000 -4.023328e-001 5.000000e-001
      endloop
   endfacet
   facet normal 0.000000e+000 0.000000e+000 1.000000e+000
      outer loop
         vertex 4.983787e+000 -4.023328e-001 5.000000e-001
         vertex -5.000000e+000 0.000000e+000 5.000000e-001
         vertex -4.935251e+000 -8.020564e-001 5.000000e-001
      endloop
   endfacet
   facet normal 0.000000e+000 0.000000e+000 1.000000e+000
      outer loop
         vertex 4.983787e+000 -4.023328e-001 5.000000e-001
         vertex -4.935251e+000 -8.020564e-001 5.000000e-001
         vertex 4.854709e+000 -1.196578e+000 5.000000e-001
      endloop
   endfacet
   facet normal 0.000000e+000 0.000000e+000 1.000000e+000
      outer loop
         vertex 4.854709e+000 -1.196578e+000 5.000000e-001
         vertex -4.935251e+000 -8.020564e-001 5.000000e-001
         vertex -4.742682e+000 -1.583340e+000 5.000000e-001
      endloop
   endfacet
   facet normal 0.000000e+000 0.000000e+000 1.000000e+000
      outer loop
         vertex 4.854709e+000 -1.196578e+000 5.000000e-001
         vertex -4.742682e+000 -1.583340e+000 5.000000e-001
         vertex 4.599897e+000 -1.959833e+000 5.000000e-001
      endloop
   endfacet
   facet normal 0.000000e+000 0.000000e+000 1.000000e+000
      outer loop
         vertex 4.599897e+000 -1.959833e+000 5.000000e-001
         vertex -4.742682e+000 -1.583340e+000 5.000000e-001
         vertex -4.427280e+000 -2.323616e+000 5.000000e-001
      endloop
   endfacet
   facet normal 0.000000e+000 0.000000e+000 1.000000e+000
      outer loop
         vertex 4.599897e+000 -1.959833e+000 5.000000e-001
         vertex -4.427280e+000 -2.323616e+000 5.000000e-001
         vertex 4.225950e+000 -2.672329e+000 5.000000e-001
      endloop
   endfacet
   facet normal 0.000000e+000 0.000000e+000 1.000000e+000
      outer loop
         vertex 4.225950e+000 -2.672329e+000 5.000000e-001
         vertex -4.427280e+000 -2.323616e+000 5.000000e-001
         vertex -3.997214e+000 -3.003711e+000 5.000000e-001
      endloop
   endfacet
   facet normal 0.000000e+000 0.000000e+000 1.000000e+000
      outer loop
         vertex 4.225950e+000 -2.672329e+000 5.000000e-001
         vertex -3.997214e+000 -3.003711e+000 5.000000e-001
         vertex 3.742554e+000 -3.315613e+000 5.000000e-001
      endloop
   endfacet
   facet normal 0.000000e+000 0.000000e+000 1.000000e+000
      outer loop
         vertex 3.742554e+000 -3.315613e+000 5.000000e-001
         vertex -3.997214e+000 -3.003711e+000 5.000000e-001
         vertex -3.463622e+000 -3.606012e+000 5.000000e-001
      endloop
   endfacet
   facet normal 0.000000e+000 0.000000e+000 1.000000e+000
      outer loop
         vertex 3.742554e+000 -3.315613e+000 5.000000e-001
         vertex -3.463622e+000 -3.606012e+000 5.000000e-001
         vertex 3.162227e+000 -3.873025e+000 5.000000e-001
      endloop
   endfacet
   facet normal 0.000000e+000 0.000000e+000 1.000000e+000
      outer loop
         vertex 3.162227e+000 -3.873025e+000 5.000000e-001
         vertex -3.463622e+000 -3.606012e+000 5.000000e-001
         vertex -2.840324e+000 -4.114919e+000 5.000000e-001
      endloop
   endfacet
   facet normal 0.000000e+000 0.000000e+000 1.000000e+000
      outer loop
         vertex 3.162227e+000 -3.873025e+000 5.000000e-001
         vertex -2.840324e+000 -4.114919e+000 5.000000e-001
         vertex 2.500000e+000 -4.330127e+000 5.000000e-001
      endloop
   endfacet
   facet normal 0.000000e+000 0.000000e+000 1.000000e+000
      outer loop
         vertex 2.500000e+000 -4.330127e+000 5.000000e-001
         vertex -2.840324e+000 -4.114919e+000 5.000000e-001
         vertex -2.143463e+000 -4.517252e+000 5.000000e-001
      endloop
   endfacet
   facet normal 0.000000e+000 0.000000e+000 1.000000e+000
      outer loop
         vertex 2.500000e+000 -4.330127e+000 5.000000e-001
         vertex -2.143463e+000 -4.517252e+000 5.000000e-001
         vertex 1.773024e+000 -4.675081e+000 5.000000e-001
      endloop
   endfacet
   facet normal 0.000000e+000 0.000000e+000 1.000000e+000
      outer loop
         vertex 1.773024e+000 -4.675081e+000 5.000000e-001
         vertex -2.143463e+000 -4.517252e+000 5.000000e-001
         vertex -1.391087e+000 -4.802590e+000 5.000000e-001
      endloop
   endfacet
   facet normal 0.000000e+000 0.000000e+000 1.000000e+000
      outer loop
         vertex 1.773024e+000 -4.675081e+000 5.000000e-001
         vertex -1.391087e+000 -4.802590e+000 5.000000e-001
         vertex 1.000129e+000 -4.898953e+000 5.000000e-001
      endloop
   endfacet
   facet normal 0.000000e+000 0.000000e+000 1.000000e+000
      outer loop
         vertex 1.000129e+000 -4.898953e+000 5.000000e-001
         vertex -1.391087e+000 -4.802590e+000 5.000000e-001
         vertex -6.026834e-001 -4.963544e+000 5.000000e-001
      endloop
   endfacet
   facet normal 0.000000e+000 0.000000e+000 1.000000e+000
      outer loop
         vertex 1.000129e+000 -4.898953e+000 5.000000e-001
         vertex -6.026834e-001 -4.963544e+000 5.000000e-001
         vertex 2.013297e-001 -4.995945e+000 5.000000e-001
      endloop
   endfacet
   facet normal 0.000000e+000 0.000000e+000 1.000000e+000
      outer loop
         vertex 4.854709e+000 1.196578e+000 5.000000e-001
         vertex -2.840324e+000 4.114919e+000 5.000000e-001
         vertex -3.463622e+000 3.606012e+000 5.000000e-001
      endloop
   endfacet
   facet normal 0.000000e+000 0.000000e+000 1.000000e+000
      outer loop
         vertex 5.000000e+000 6.123234e-016 5.000000e-001
         vertex 4.983787e+000 4.023328e-001 5.000000e-001
         vertex -5.000000e+000 0.000000e+000 5.000000e-001
      endloop
   endfacet
   facet normal 0.000000e+000 0.000000e+000 1.000000e+000
      outer loop
         vertex -5.000000e+000 0.000000e+000 5.000000e-001
         vertex 4.983787e+000 4.023328e-001 5.000000e-001
         vertex 4.854709e+000 1.196578e+000 5.000000e-001
      endloop
   endfacet
   facet normal 0.000000e+000 0.000000e+000 1.000000e+000
      outer loop
         vertex -5.000000e+000 0.000000e+000 5.000000e-001
         vertex 4.854709e+000 1.196578e+000 5.000000e-001
         vertex -4.935251e+000 8.020564e-001 5.000000e-001
      endloop
   endfacet
   facet normal 0.000000e+000 0.000000e+000 1.000000e+000
      outer loop
         vertex -4.935251e+000 8.020564e-001 5.000000e-001
         vertex 4.854709e+000 1.196578e+000 5.000000e-001
         vertex -3.463622e+000 3.606012e+000 5.000000e-001
      endloop
   endfacet
   facet normal 0.000000e+000 0.000000e+000 1.000000e+000
      outer loop
         vertex -4.935251e+000 8.020564e-001 5.000000e-001
         vertex -3.463622e+000 3.606012e+000 5.000000e-001
         vertex -4.742682e+000 1.583340e+000 5.000000e-001
      endloop
   endfacet
   facet normal 0.000000e+000 0.000000e+000 1.000000e+000
      outer loop
         vertex -4.742682e+000 1.583340e+000 5.000000e-001
         vertex -3.463622e+000 3.606012e+000 5.000000e-001
         vertex -3.997214e+000 3.003711e+000 5.000000e-001
      endloop
   endfacet
   facet normal 0.000000e+000 0.000000e+000 1.000000e+000
      outer loop
         vertex -4.742682e+000 1.583340e+000 5.000000e-001
         vertex -3.997214e+000 3.003711e+000 5.000000e-001
         vertex -4.427280e+000 2.323616e+000 5.000000e-001
      endloop
   endfacet
   facet normal 0.000000e+000 0.000000e+000 1.000000e+000
      outer loop
         vertex -6.026834e-001 4.963544e+000 5.000000e-001
         vertex 3.742554e+000 3.315613e+000 5.000000e-001
         vertex 3.162227e+000 3.873025e+000 5.000000e-001
      endloop
   endfacet
   facet normal 0.000000e+000 0.000000e+000 1.000000e+000
      outer loop
         vertex 4.225950e+000 2.672329e+000 5.000000e-001
         vertex 3.742554e+000 3.315613e+000 5.000000e-001
         vertex 4.599897e+000 1.959833e+000 5.000000e-001
      endloop
   endfacet
   facet normal 0.000000e+000 0.000000e+000 1.000000e+000
      outer loop
         vertex 4.599897e+000 1.959833e+000 5.000000e-001
         vertex 3.742554e+000 3.315613e+000 5.000000e-001
         vertex -6.026834e-001 4.963544e+000 5.000000e-001
      endloop
   endfacet
   facet normal 0.000000e+000 0.000000e+000 1.000000e+000
      outer loop
         vertex 4.599897e+000 1.959833e+000 5.000000e-001
         vertex -6.026834e-001 4.963544e+000 5.000000e-001
         vertex 4.854709e+000 1.196578e+000 5.000000e-001
      endloop
   endfacet
   facet normal 0.000000e+000 0.000000e+000 1.000000e+000
      outer loop
         vertex 4.854709e+000 1.196578e+000 5.000000e-001
         vertex -6.026834e-001 4.963544e+000 5.000000e-001
         vertex -1.391087e+000 4.802590e+000 5.000000e-001
      endloop
   endfacet
   facet normal 0.000000e+000 0.000000e+000 1.000000e+000
      outer loop
         vertex 4.854709e+000 1.196578e+000 5.000000e-001
         vertex -1.391087e+000 4.802590e+000 5.000000e-001
         vertex -2.840324e+000 4.114919e+000 5.000000e-001
      endloop
   endfacet
   facet normal 0.000000e+000 0.000000e+000 1.000000e+000
      outer loop
         vertex -2.840324e+000 4.114919e+000 5.000000e-001
         vertex -1.391087e+000 4.802590e+000 5.000000e-001
         vertex -2.143463e+000 4.517252e+000 5.000000e-001
      endloop
   endfacet
   facet normal 0.000000e+000 0.000000e+000 1.000000e+000
      outer loop
         vertex 1.000129e+000 4.898953e+000 5.000000e-001
         vertex 2.013297e-001 4.995945e+000 5.000000e-001
         vertex 1.773024e+000 4.675081e+000 5.000000e-001
      endloop
   endfacet
   facet normal 0.000000e+000 0.000000e+000 1.000000e+000
      outer loop
         vertex 1.773024e+000 4.675081e+000 5.000000e-001
         vertex 2.013297e-001 4.995945e+000 5.000000e-001
         vertex -6.026834e-001 4.963544e+000 5.000000e-001
      endloop
   endfacet
   facet normal 0.000000e+000 0.000000e+000 1.000000e+000
      outer loop
         vertex 1.773024e+000 4.675081e+000 5.000000e-001
         vertex -6.026834e-001 4.963544e+000 5.000000e-001
         vertex 2.500000e+000 4.330127e+000 5.000000e-001
      endloop
   endfacet
   facet normal 0.000000e+000 0.000000e+000 1.000000e+000
      outer loop
         vertex 2.500000e+000 4.330127e+000 5.000000e-001
         vertex -6.026834e-001 4.963544e+000 5.000000e-001
         vertex 3.162227e+000 3.873025e+000 5.000000e-001
      endloop
   endfacet
   facet normal 0.000000e+000 0.000000e+000 -1.000000e+000
      outer loop
         vertex -6.026834e-001 4.963544e+000 -5.000000e-001
         vertex 2.013297e-001 4.995945e+000 -5.000000e-001
         vertex 1.000129e+000 4.898953e+000 -5.000000e-001
      endloop
   endfacet
   facet normal 0.000000e+000 0.000000e+000 -1.000000e+000
      outer loop
         vertex -6.026834e-001 4.963544e+000 -5.000000e-001
         vertex 1.000129e+000 4.898953e+000 -5.000000e-001
         vertex -1.391087e+000 4.802590e+000 -5.000000e-001
      endloop
   endfacet
   facet normal 0.000000e+000 0.000000e+000 -1.000000e+000
      outer loop
         vertex -1.391087e+000 4.802590e+000 -5.000000e-001
         vertex 1.000129e+000 4.898953e+000 -5.000000e-001
         vertex 1.773024e+000 4.675081e+000 -5.000000e-001
      endloop
   endfacet
   facet normal 0.000000e+000 0.000000e+000 -1.000000e+000
      outer loop
         vertex -1.391087e+000 4.802590e+000 -5.000000e-001
         vertex 1.773024e+000 4.675081e+000 -5.000000e-001
         vertex -2.143463e+000 4.517252e+000 -5.000000e-001
      endloop
   endfacet
   facet normal 0.000000e+000 0.000000e+000 -1.000000e+000
      outer loop
         vertex -2.143463e+000 4.517252e+000 -5.000000e-001
         vertex 1.773024e+000 4.675081e+000 -5.000000e-001
         vertex 2.500000e+000 4.330127e+000 -5.000000e-001
      endloop
   endfacet
   facet normal 0.000000e+000 0.000000e+000 -1.000000e+000
      outer loop
         vertex -2.143463e+000 4.517252e+000 -5.000000e-001
         vertex 2.500000e+000 4.330127e+000 -5.000000e-001
         vertex -2.840324e+000 4.114919e+000 -5.000000e-001
      endloop
   endfacet
   facet normal 0.000000e+000 0.000000e+000 -1.000000e+000
      outer loop
         vertex -2.840324e+000 4.114919e+000 -5.000000e-001
         vertex 2.500000e+000 4.330127e+000 -5.000000e-001
         vertex 3.162227e+000 3.873025e+000 -5.000000e-001
      endloop
   endfacet
   facet normal 0.000000e+000 0.000000e+000 -1.000000e+000
      outer loop
         vertex -2.840324e+000 4.114919e+000 -5.000000e-001
         vertex 3.162227e+000 3.873025e+000 -5.000000e-001
         vertex -3.463622e+000 3.606012e+000 -5.000000e-001
      endloop
   endfacet
   facet normal 0.000000e+000 0.000000e+000 -1.000000e+000
      outer loop
         vertex -3.463622e+000 3.606012e+000 -5.000000e-001
         vertex 3.162227e+000 3.873025e+000 -5.000000e-001
         vertex 3.742554e+000 3.315613e+000 -5.000000e-001
      endloop
   endfacet
   facet normal 0.000000e+000 0.000000e+000 -1.000000e+000
      outer loop
         vertex -3.463622e+000 3.606012e+000 -5.000000e-001
         vertex 3.742554e+000 3.315613e+000 -5.000000e-001
         vertex -3.997214e+000 3.003711e+000 -5.000000e-001
      endloop
   endfacet
   facet normal 0.000000e+000 0.000000e+000 -1.000000e+000
      outer loop
         vertex -3.997214e+000 3.003711e+000 -5.000000e-001
         vertex 3.742554e+000 3.315613e+000 -5.000000e-001
         vertex 4.225950e+000 2.672329e+000 -5.000000e-001
      endloop
   endfacet
   facet normal 0.000000e+000 0.000000e+000 -1.000000e+000
      outer loop
         vertex -3.997214e+000 3.003711e+000 -5.000000e-001
         vertex 4.225950e+000 2.672329e+000 -5.000000e-001
         vertex -4.427280e+000 2.323616e+000 -5.000000e-001
      endloop
   endfacet
   facet normal 0.000000e+000 0.000000e+000 -1.000000e+000
      outer loop
         vertex -4.427280e+000 2.323616e+000 -5.000000e-001
         vertex 4.225950e+000 2.672329e+000 -5.000000e-001
         vertex 4.599897e+000 1.959833e+000 -5.000000e-001
      endloop
   endfacet
   facet normal 0.000000e+000 0.000000e+000 -1.000000e+000
      outer loop
         vertex -4.427280e+000 2.323616e+000 -5.000000e-001
         vertex 4.599897e+000 1.959833e+000 -5.000000e-001
         vertex -4.742682e+000 1.583340e+000 -5.000000e-001
      endloop
   endfacet
   facet normal 0.000000e+000 0.000000e+000 -1.000000e+000
      outer loop
         vertex -4.742682e+000 1.583340e+000 -5.000000e-001
         vertex 4.599897e+000 1.959833e+000 -5.000000e-001
         vertex 4.854709e+000 1.196578e+000 -5.000000e-001
      endloop
   endfacet
   facet normal 0.000000e+000 0.000000e+000 -1.000000e+000
      outer loop
         vertex -4.742682e+000 1.583340e+000 -5.000000e-001
         vertex 4.854709e+000 1.196578e+000 -5.000000e-001
         vertex -4.935251e+000 8.020564e-001 -5.000000e-001
      endloop
   endfacet
   facet normal 0.000000e+000 0.000000e+000 -1.000000e+000
      outer loop
         vertex -4.935251e+000 8.020564e-001 -5.000000e-001
         vertex 4.854709e+000 1.196578e+000 -5.000000e-001
         vertex 4.983787e+000 4.023328e-001 -5.000000e-001
      endloop
   endfacet
   facet normal 0.000000e+000 0.000000e+000 -1.000000e+000
      outer loop
         vertex -4.935251e+000 8.020564e-001 -5.000000e-001
         vertex 4.983787e+000 4.023328e-001 -5.000000e-001
         vertex -5.000000e+000 0.000000e+000 -5.000000e-001
      endloop
   endfacet
   facet normal 0.000000e+000 0.000000e+000 -1.000000e+000
      outer loop
         vertex -5.000000e+000 0.000000e+000 -5.000000e-001
         vertex 4.983787e+000 4.023328e-001 -5.000000e-001
         vertex 5.000000e+000 1.836970e-015 -5.000000e-001
      endloop
   endfacet
   facet normal 0.000000e+000 0.000000e+000 -1.000000e+000
      outer loop
         vertex -5.000000e+000 0.000000e+000 -5.000000e-001
         vertex 5.000000e+000 1.836970e-015 -5.000000e-001
         vertex 4.983787e+000 -4.023328e-001 -5.000000e-001
      endloop
   endfacet
   facet normal 0.000000e+000 0.000000e+000 -1.000000e+000
      outer loop
         vertex 4.983787e+000 -4.023328e-001 -5.000000e-001
         vertex 4.854709e+000 -1.196578e+000 -5.000000e-001
         vertex -5.000000e+000 0.000000e+000 -5.000000e-001
      endloop
   endfacet
   facet normal 0.000000e+000 0.000000e+000 -1.000000e+000
      outer loop
         vertex -5.000000e+000 0.000000e+000 -5.000000e-001
         vertex 4.854709e+000 -1.196578e+000 -5.000000e-001
         vertex 4.599897e+000 -1.959833e+000 -5.000000e-001
      endloop
   endfacet
   facet normal 0.000000e+000 0.000000e+000 -1.000000e+000
      outer loop
         vertex -5.000000e+000 0.000000e+000 -5.000000e-001
         vertex 4.599897e+000 -1.959833e+000 -5.000000e-001
         vertex 4.225950e+000 -2.672329e+000 -5.000000e-001
      endloop
   endfacet
   facet normal 0.000000e+000 0.000000e+000 -1.000000e+000
      outer loop
         vertex -2.840324e+000 -4.114919e+000 -5.000000e-001
         vertex -3.463622e+000 -3.606012e+000 -5.000000e-001
         vertex -3.997214e+000 -3.003711e+000 -5.000000e-001
      endloop
   endfacet
   facet normal 0.000000e+000 0.000000e+000 -1.000000e+000
      outer loop
         vertex 4.225950e+000 -2.672329e+000 -5.000000e-001
         vertex 3.742554e+000 -3.315613e+000 -5.000000e-001
         vertex -3.997214e+000 -3.003711e+000 -5.000000e-001
      endloop
   endfacet
   facet normal 0.000000e+000 0.000000e+000 -1.000000e+000
      outer loop
         vertex -3.997214e+000 -3.003711e+000 -5.000000e-001
         vertex 3.742554e+000 -3.315613e+000 -5.000000e-001
         vertex 3.162227e+000 -3.873025e+000 -5.000000e-001
      endloop
   endfacet
   facet normal 0.000000e+000 0.000000e+000 -1.000000e+000
      outer loop
         vertex -4.935251e+000 -8.020564e-001 -5.000000e-001
         vertex -5.000000e+000 0.000000e+000 -5.000000e-001
         vertex -4.742682e+000 -1.583340e+000 -5.000000e-001
      endloop
   endfacet
   facet normal 0.000000e+000 0.000000e+000 -1.000000e+000
      outer loop
         vertex -4.742682e+000 -1.583340e+000 -5.000000e-001
         vertex -5.000000e+000 0.000000e+000 -5.000000e-001
         vertex 4.225950e+000 -2.672329e+000 -5.000000e-001
      endloop
   endfacet
   facet normal 0.000000e+000 0.000000e+000 -1.000000e+000
      outer loop
         vertex -4.742682e+000 -1.583340e+000 -5.000000e-001
         vertex 4.225950e+000 -2.672329e+000 -5.000000e-001
         vertex -4.427280e+000 -2.323616e+000 -5.000000e-001
      endloop
   endfacet
   facet normal 0.000000e+000 0.000000e+000 -1.000000e+000
      outer loop
         vertex -4.427280e+000 -2.323616e+000 -5.000000e-001
         vertex 4.225950e+000 -2.672329e+000 -5.000000e-001
         vertex -3.997214e+000 -3.003711e+000 -5.000000e-001
      endloop
   endfacet
   facet normal 0.000000e+000 0.000000e+000 -1.000000e+000
      outer loop
         vertex 3.162227e+000 -3.873025e+000 -5.000000e-001
         vertex 2.500000e+000 -4.330127e+000 -5.000000e-001
         vertex -3.997214e+000 -3.003711e+000 -5.000000e-001
      endloop
   endfacet
   facet normal 0.000000e+000 0.000000e+000 -1.000000e+000
      outer loop
         vertex -3.997214e+000 -3.003711e+000 -5.000000e-001
         vertex 2.500000e+000 -4.330127e+000 -5.000000e-001
         vertex 1.773024e+000 -4.675081e+000 -5.000000e-001
      endloop
   endfacet
   facet normal 0.000000e+000 0.000000e+000 -1.000000e+000
      outer loop
         vertex -3.997214e+000 -3.003711e+000 -5.000000e-001
         vertex 1.773024e+000 -4.675081e+000 -5.000000e-001
         vertex 1.000129e+000 -4.898953e+000 -5.000000e-001
      endloop
   endfacet
   facet normal 0.000000e+000 0.000000e+000 -1.000000e+000
      outer loop
         vertex -2.143463e+000 -4.517252e+000 -5.000000e-001
         vertex -2.840324e+000 -4.114919e+000 -5.000000e-001
         vertex -1.391087e+000 -4.802590e+000 -5.000000e-001
      endloop
   endfacet
   facet normal 0.000000e+000 0.000000e+000 -1.000000e+000
      outer loop
         vertex -1.391087e+000 -4.802590e+000 -5.000000e-001
         vertex -2.840324e+000 -4.114919e+000 -5.000000e-001
         vertex -3.997214e+000 -3.003711e+000 -5.000000e-001
      endloop
   endfacet
   facet normal 0.000000e+000 0.000000e+000 -1.000000e+000
      outer loop
         vertex -1.391087e+000 -4.802590e+000 -5.000000e-001
         vertex -3.997214e+000 -3.003711e+000 -5.000000e-001
         vertex -6.026834e-001 -4.963544e+000 -5.000000e-001
      endloop
   endfacet
   facet normal 0.000000e+000 0.000000e+000 -1.000000e+000
      outer loop
         vertex -6.026834e-001 -4.963544e+000 -5.000000e-001
         vertex -3.997214e+000 -3.003711e+000 -5.000000e-001
         vertex 1.000129e+000 -4.898953e+000 -5.000000e-001
      endloop
   endfacet
   facet normal 0.000000e+000 0.000000e+000 -1.000000e+000
      outer loop
         vertex -6.026834e-001 -4.963544e+000 -5.000000e-001
         vertex 1.000129e+000 -4.898953e+000 -5.000000e-001
         vertex 2.013297e-001 -4.995945e+000 -5.000000e-001
      endloop
   endfacet
endsolid