solid AMIinterface_fine
   facet normal -9.994299e-001 3.376129e-002 0.000000e+000
      outer loop
         vertex -4.974347e+000 5.058416e-001 5.000000e-001
         vertex -5.000000e+000 0.000000e+000 -5.000000e-001
         vertex -5.000000e+000 0.000000e+000 5.000000e-001
      endloop
   endfacet
   facet normal -9.994299e-001 -3.376129e-002 0.000000e+000
      outer loop
         vertex -5.000000e+000 0.000000e+000 5.000000e-001
         vertex -5.000000e+000 0.000000e+000 -5.000000e-001
         vertex -4.974347e+000 -5.058416e-001 -5.000000e-001
      endloop
   endfacet
   facet normal -9.977177e-001 -6.752258e-002 0.000000e+000
      outer loop
         vertex -5.000000e+000 0.000000e+000 5.000000e-001
         vertex -4.974347e+000 -5.058416e-001 -5.000000e-001
         vertex -4.974347e+000 -5.058416e-001 5.000000e-001
      endloop
   endfacet
   facet normal -9.908866e-001 -1.346987e-001 0.000000e+000
      outer loop
         vertex -4.974347e+000 -5.058416e-001 5.000000e-001
         vertex -4.974347e+000 -5.058416e-001 -5.000000e-001
         vertex -4.897650e+000 -1.006493e+000 -5.000000e-001
      endloop
   endfacet
   facet normal -9.857677e-001 -1.681136e-001 0.000000e+000
      outer loop
         vertex -4.974347e+000 -5.058416e-001 5.000000e-001
         vertex -4.897650e+000 -1.006493e+000 -5.000000e-001
         vertex -4.897650e+000 -1.006493e+000 5.000000e-001
      endloop
   endfacet
   facet normal -9.721754e-001 -2.342540e-001 0.000000e+000
      outer loop
         vertex -4.897650e+000 -1.006493e+000 5.000000e-001
         vertex -4.897650e+000 -1.006493e+000 -5.000000e-001
         vertex -4.770696e+000 -1.496816e+000 -5.000000e-001
      endloop
   endfacet
   facet normal -9.637022e-001 -2.669795e-001 0.000000e+000
      outer loop
         vertex -4.897650e+000 -1.006493e+000 5.000000e-001
         vertex -4.770696e+000 -1.496816e+000 -5.000000e-001
         vertex -4.770696e+000 -1.496816e+000 5.000000e-001
      endloop
   endfacet
   facet normal -9.434884e-001 -3.314055e-001 0.000000e+000
      outer loop
         vertex -4.770696e+000 -1.496816e+000 5.000000e-001
         vertex -4.770696e+000 -1.496816e+000 -5.000000e-001
         vertex -4.594789e+000 -1.971779e+000 -5.000000e-001
      endloop
   endfacet
   facet normal -9.317479e-001 -3.631058e-001 0.000000e+000
      outer loop
         vertex -4.770696e+000 -1.496816e+000 5.000000e-001
         vertex -4.594789e+000 -1.971779e+000 -5.000000e-001
         vertex -4.594789e+000 -1.971779e+000 5.000000e-001
      endloop
   endfacet
   facet normal -9.051200e-001 -4.251562e-001 0.000000e+000
      outer loop
         vertex -4.594789e+000 -1.971779e+000 5.000000e-001
         vertex -4.594789e+000 -1.971779e+000 -5.000000e-001
         vertex -4.371733e+000 -2.426510e+000 -5.000000e-001
      endloop
   endfacet
   facet normal -8.902326e-001 -4.555062e-001 0.000000e+000
      outer loop
         vertex -4.594789e+000 -1.971779e+000 5.000000e-001
         vertex -4.371733e+000 -2.426510e+000 -5.000000e-001
         vertex -4.371733e+000 -2.426510e+000 5.000000e-001
      endloop
   endfacet
   facet normal -8.574637e-001 -5.145444e-001 0.000000e+000
      outer loop
         vertex -4.371733e+000 -2.426510e+000 5.000000e-001
         vertex -4.371733e+000 -2.426510e+000 -5.000000e-001
         vertex -4.103817e+000 -2.856341e+000 -5.000000e-001
      endloop
   endfacet
   facet normal -8.395823e-001 -5.432325e-001 0.000000e+000
      outer loop
         vertex -4.371733e+000 -2.426510e+000 5.000000e-001
         vertex -4.103817e+000 -2.856341e+000 -5.000000e-001
         vertex -4.103817e+000 -2.856341e+000 5.000000e-001
      endloop
   endfacet
   facet normal -8.010088e-001 -5.986526e-001 0.000000e+000
      outer loop
         vertex -4.103817e+000 -2.856341e+000 5.000000e-001
         vertex -4.103817e+000 -2.856341e+000 -5.000000e-001
         vertex -3.793791e+000 -3.256862e+000 -5.000000e-001
      endloop
   endfacet
   facet normal -7.803167e-001 -6.253844e-001 0.000000e+000
      outer loop
         vertex -4.103817e+000 -2.856341e+000 5.000000e-001
         vertex -3.793791e+000 -3.256862e+000 -5.000000e-001
         vertex -3.793791e+000 -3.256862e+000 5.000000e-001
      endloop
   endfacet
   facet normal -7.363344e-001 -6.766178e-001 0.000000e+000
      outer loop
         vertex -3.793791e+000 -3.256862e+000 5.000000e-001
         vertex -3.793791e+000 -3.256862e+000 -5.000000e-001
         vertex -3.444835e+000 -3.623964e+000 -5.000000e-001
      endloop
   endfacet
   facet normal -7.130441e-001 -7.011192e-001 0.000000e+000
      outer loop
         vertex -3.793791e+000 -3.256862e+000 5.000000e-001
         vertex -3.444835e+000 -3.623964e+000 -5.000000e-001
         vertex -3.444835e+000 -3.623964e+000 5.000000e-001
      endloop
   endfacet
   facet normal -6.641042e-001 -7.476400e-001 0.000000e+000
      outer loop
         vertex -3.444835e+000 -3.623964e+000 5.000000e-001
         vertex -3.444835e+000 -3.623964e+000 -5.000000e-001
         vertex -3.060530e+000 -3.953879e+000 -5.000000e-001
      endloop
   endfacet
   facet normal -6.384546e-001 -7.696595e-001 0.000000e+000
      outer loop
         vertex -3.444835e+000 -3.623964e+000 5.000000e-001
         vertex -3.060530e+000 -3.953879e+000 -5.000000e-001
         vertex -3.060530e+000 -3.953879e+000 5.000000e-001
      endloop
   endfacet
   facet normal -5.850594e-001 -8.109904e-001 0.000000e+000
      outer loop
         vertex -3.060530e+000 -3.953879e+000 5.000000e-001
         vertex -3.060530e+000 -3.953879e+000 -5.000000e-001
         vertex -2.644820e+000 -4.243221e+000 -5.000000e-001
      endloop
   endfacet
   facet normal -5.573137e-001 -8.303019e-001 0.000000e+000
      outer loop
         vertex -3.060530e+000 -3.953879e+000 5.000000e-001
         vertex -2.644820e+000 -4.243221e+000 -5.000000e-001
         vertex -2.644820e+000 -4.243221e+000 5.000000e-001
      endloop
   endfacet
   facet normal -5.000111e-001 -8.660190e-001 0.000000e+000
      outer loop
         vertex -2.644820e+000 -4.243221e+000 5.000000e-001
         vertex -2.644820e+000 -4.243221e+000 -5.000000e-001
         vertex -2.201971e+000 -4.489023e+000 -5.000000e-001
      endloop
   endfacet
   facet normal -4.704541e-001 -8.824245e-001 0.000000e+000
      outer loop
         vertex -2.644820e+000 -4.243221e+000 5.000000e-001
         vertex -2.201971e+000 -4.489023e+000 -5.000000e-001
         vertex -2.201971e+000 -4.489023e+000 5.000000e-001
      endloop
   endfacet
   facet normal -4.098321e-001 -9.121610e-001 0.000000e+000
      outer loop
         vertex -2.201971e+000 -4.489023e+000 5.000000e-001
         vertex -2.201971e+000 -4.489023e+000 -5.000000e-001
         vertex -1.736526e+000 -4.688761e+000 -5.000000e-001
      endloop
   endfacet
   facet normal -3.787670e-001 -9.254920e-001 0.000000e+000
      outer loop
         vertex -2.201971e+000 -4.489023e+000 5.000000e-001
         vertex -1.736526e+000 -4.688761e+000 -5.000000e-001
         vertex -1.736526e+000 -4.688761e+000 5.000000e-001
      endloop
   endfacet
   facet normal -3.154475e-001 -9.489430e-001 0.000000e+000
      outer loop
         vertex -1.736526e+000 -4.688761e+000 5.000000e-001
         vertex -1.736526e+000 -4.688761e+000 -5.000000e-001
         vertex -1.253263e+000 -4.840385e+000 -5.000000e-001
      endloop
   endfacet
   facet normal -2.831932e-001 -9.590629e-001 0.000000e+000
      outer loop
         vertex -1.736526e+000 -4.688761e+000 5.000000e-001
         vertex -1.253263e+000 -4.840385e+000 -5.000000e-001
         vertex -1.253263e+000 -4.840385e+000 5.000000e-001
      endloop
   endfacet
   facet normal -2.178261e-001 -9.759876e-001 0.000000e+000
      outer loop
         vertex -1.253263e+000 -4.840385e+000 5.000000e-001
         vertex -1.253263e+000 -4.840385e+000 -5.000000e-001
         vertex -7.571389e-001 -4.942342e+000 -5.000000e-001
      endloop
   endfacet
   facet normal -1.847134e-001 -9.827924e-001 0.000000e+000
      outer loop
         vertex -1.253263e+000 -4.840385e+000 5.000000e-001
         vertex -7.571389e-001 -4.942342e+000 -5.000000e-001
         vertex -7.571389e-001 -4.942342e+000 5.000000e-001
      endloop
   endfacet
   facet normal -1.179695e-001 -9.930172e-001 0.000000e+000
      outer loop
         vertex -7.571389e-001 -4.942342e+000 5.000000e-001
         vertex -7.571389e-001 -4.942342e+000 -5.000000e-001
         vertex -2.532458e-001 -4.993583e+000 -5.000000e-001
      endloop
   endfacet
   facet normal -8.433825e-002 -9.964372e-001 0.000000e+000
      outer loop
         vertex -7.571389e-001 -4.942342e+000 5.000000e-001
         vertex -2.532458e-001 -4.993583e+000 -5.000000e-001
         vertex -2.532458e-001 -4.993583e+000 5.000000e-001
      endloop
   endfacet
   facet normal -1.690234e-002 -9.998571e-001 0.000000e+000
      outer loop
         vertex -2.532458e-001 -4.993583e+000 5.000000e-001
         vertex -2.532458e-001 -4.993583e+000 -5.000000e-001
         vertex 2.532458e-001 -4.993583e+000 -5.000000e-001
      endloop
   endfacet
   facet normal 1.690234e-002 -9.998571e-001 0.000000e+000
      outer loop
         vertex -2.532458e-001 -4.993583e+000 5.000000e-001
         vertex 2.532458e-001 -4.993583e+000 -5.000000e-001
         vertex 2.532458e-001 -4.993583e+000 5.000000e-001
      endloop
   endfacet
   facet normal 8.433825e-002 -9.964372e-001 0.000000e+000
      outer loop
         vertex 2.532458e-001 -4.993583e+000 5.000000e-001
         vertex 2.532458e-001 -4.993583e+000 -5.000000e-001
         vertex 7.571389e-001 -4.942342e+000 -5.000000e-001
      endloop
   endfacet
   facet normal 1.179695e-001 -9.930172e-001 0.000000e+000
      outer loop
         vertex 2.532458e-001 -4.993583e+000 5.000000e-001
         vertex 7.571389e-001 -4.942342e+000 -5.000000e-001
         vertex 7.571389e-001 -4.942342e+000 5.000000e-001
      endloop
   endfacet
   facet normal 1.847134e-001 -9.827924e-001 0.000000e+000
      outer loop
         vertex 7.571389e-001 -4.942342e+000 5.000000e-001
         vertex 7.571389e-001 -4.942342e+000 -5.000000e-001
         vertex 1.253263e+000 -4.840385e+000 -5.000000e-001
      endloop
   endfacet
   facet normal 2.178261e-001 -9.759876e-001 0.000000e+000
      outer loop
         vertex 7.571389e-001 -4.942342e+000 5.000000e-001
         vertex 1.253263e+000 -4.840385e+000 -5.000000e-001
         vertex 1.253263e+000 -4.840385e+000 5.000000e-001
      endloop
   endfacet
   facet normal 2.831932e-001 -9.590629e-001 0.000000e+000
      outer loop
         vertex 1.253263e+000 -4.840385e+000 5.000000e-001
         vertex 1.253263e+000 -4.840385e+000 -5.000000e-001
         vertex 1.736526e+000 -4.688761e+000 -5.000000e-001
      endloop
   endfacet
   facet normal 3.154475e-001 -9.489430e-001 0.000000e+000
      outer loop
         vertex 1.253263e+000 -4.840385e+000 5.000000e-001
         vertex 1.736526e+000 -4.688761e+000 -5.000000e-001
         vertex 1.736526e+000 -4.688761e+000 5.000000e-001
      endloop
   endfacet
   facet normal 3.787670e-001 -9.254920e-001 0.000000e+000
      outer loop
         vertex 1.736526e+000 -4.688761e+000 5.000000e-001
         vertex 1.736526e+000 -4.688761e+000 -5.000000e-001
         vertex 2.201971e+000 -4.489023e+000 -5.000000e-001
      endloop
   endfacet
   facet normal 4.098321e-001 -9.121610e-001 0.000000e+000
      outer loop
         vertex 1.736526e+000 -4.688761e+000 5.000000e-001
         vertex 2.201971e+000 -4.489023e+000 -5.000000e-001
         vertex 2.201971e+000 -4.489023e+000 5.000000e-001
      endloop
   endfacet
   facet normal 4.704541e-001 -8.824245e-001 0.000000e+000
      outer loop
         vertex 2.201971e+000 -4.489023e+000 5.000000e-001
         vertex 2.201971e+000 -4.489023e+000 -5.000000e-001
         vertex 2.644820e+000 -4.243221e+000 -5.000000e-001
      endloop
   endfacet
   facet normal 5.000111e-001 -8.660190e-001 0.000000e+000
      outer loop
         vertex 2.201971e+000 -4.489023e+000 5.000000e-001
         vertex 2.644820e+000 -4.243221e+000 -5.000000e-001
         vertex 2.644820e+000 -4.243221e+000 5.000000e-001
      endloop
   endfacet
   facet normal 5.573137e-001 -8.303019e-001 0.000000e+000
      outer loop
         vertex 2.644820e+000 -4.243221e+000 5.000000e-001
         vertex 2.644820e+000 -4.243221e+000 -5.000000e-001
         vertex 3.060530e+000 -3.953879e+000 -5.000000e-001
      endloop
   endfacet
   facet normal 5.850594e-001 -8.109904e-001 0.000000e+000
      outer loop
         vertex 2.644820e+000 -4.243221e+000 5.000000e-001
         vertex 3.060530e+000 -3.953879e+000 -5.000000e-001
         vertex 3.060530e+000 -3.953879e+000 5.000000e-001
      endloop
   endfacet
   facet normal 6.384546e-001 -7.696595e-001 0.000000e+000
      outer loop
         vertex 3.060530e+000 -3.953879e+000 5.000000e-001
         vertex 3.060530e+000 -3.953879e+000 -5.000000e-001
         vertex 3.444835e+000 -3.623964e+000 -5.000000e-001
      endloop
   endfacet
   facet normal 6.641042e-001 -7.476400e-001 0.000000e+000
      outer loop
         vertex 3.060530e+000 -3.953879e+000 5.000000e-001
         vertex 3.444835e+000 -3.623964e+000 -5.000000e-001
         vertex 3.444835e+000 -3.623964e+000 5.000000e-001
      endloop
   endfacet
   facet normal 7.130441e-001 -7.011192e-001 0.000000e+000
      outer loop
         vertex 3.444835e+000 -3.623964e+000 5.000000e-001
         vertex 3.444835e+000 -3.623964e+000 -5.000000e-001
         vertex 3.793791e+000 -3.256862e+000 -5.000000e-001
      endloop
   endfacet
   facet normal 7.363344e-001 -6.766178e-001 0.000000e+000
      outer loop
         vertex 3.444835e+000 -3.623964e+000 5.000000e-001
         vertex 3.793791e+000 -3.256862e+000 -5.000000e-001
         vertex 3.793791e+000 -3.256862e+000 5.000000e-001
      endloop
   endfacet
   facet normal 7.803167e-001 -6.253844e-001 0.000000e+000
      outer loop
         vertex 3.793791e+000 -3.256862e+000 5.000000e-001
         vertex 3.793791e+000 -3.256862e+000 -5.000000e-001
         vertex 4.103817e+000 -2.856341e+000 -5.000000e-001
      endloop
   endfacet
   facet normal 8.010088e-001 -5.986526e-001 0.000000e+000
      outer loop
         vertex 3.793791e+000 -3.256862e+000 5.000000e-001
         vertex 4.103817e+000 -2.856341e+000 -5.000000e-001
         vertex 4.103817e+000 -2.856341e+000 5.000000e-001
      endloop
   endfacet
   facet normal 8.395823e-001 -5.432325e-001 0.000000e+000
      outer loop
         vertex 4.103817e+000 -2.856341e+000 5.000000e-001
         vertex 4.103817e+000 -2.856341e+000 -5.000000e-001
         vertex 4.371733e+000 -2.426510e+000 -5.000000e-001
      endloop
   endfacet
   facet normal 8.574637e-001 -5.145444e-001 0.000000e+000
      outer loop
         vertex 4.103817e+000 -2.856341e+000 5.000000e-001
         vertex 4.371733e+000 -2.426510e+000 -5.000000e-001
         vertex 4.371733e+000 -2.426510e+000 5.000000e-001
      endloop
   endfacet
   facet normal 8.902326e-001 -4.555062e-001 0.000000e+000
      outer loop
         vertex 4.371733e+000 -2.426510e+000 5.000000e-001
         vertex 4.371733e+000 -2.426510e+000 -5.000000e-001
         vertex 4.594789e+000 -1.971779e+000 -5.000000e-001
      endloop
   endfacet
   facet normal 9.051200e-001 -4.251562e-001 0.000000e+000
      outer loop
         vertex 4.371733e+000 -2.426510e+000 5.000000e-001
         vertex 4.594789e+000 -1.971779e+000 -5.000000e-001
         vertex 4.594789e+000 -1.971779e+000 5.000000e-001
      endloop
   endfacet
   facet normal 9.317479e-001 -3.631058e-001 0.000000e+000
      outer loop
         vertex 4.594789e+000 -1.971779e+000 5.000000e-001
         vertex 4.594789e+000 -1.971779e+000 -5.000000e-001
         vertex 4.770696e+000 -1.496816e+000 -5.000000e-001
      endloop
   endfacet
   facet normal 9.434884e-001 -3.314055e-001 0.000000e+000
      outer loop
         vertex 4.594789e+000 -1.971779e+000 5.000000e-001
         vertex 4.770696e+000 -1.496816e+000 -5.000000e-001
         vertex 4.770696e+000 -1.496816e+000 5.000000e-001
      endloop
   endfacet
   facet normal 9.637022e-001 -2.669795e-001 0.000000e+000
      outer loop
         vertex 4.770696e+000 -1.496816e+000 5.000000e-001
         vertex 4.770696e+000 -1.496816e+000 -5.000000e-001
         vertex 4.897650e+000 -1.006493e+000 -5.000000e-001
      endloop
   endfacet
   facet normal 9.721754e-001 -2.342540e-001 0.000000e+000
      outer loop
         vertex 4.770696e+000 -1.496816e+000 5.000000e-001
         vertex 4.897650e+000 -1.006493e+000 -5.000000e-001
         vertex 4.897650e+000 -1.006493e+000 5.000000e-001
      endloop
   endfacet
   facet normal 9.857677e-001 -1.681136e-001 0.000000e+000
      outer loop
         vertex 4.897650e+000 -1.006493e+000 5.000000e-001
         vertex 4.897650e+000 -1.006493e+000 -5.000000e-001
         vertex 4.974347e+000 -5.058416e-001 -5.000000e-001
      endloop
   endfacet
   facet normal 9.908866e-001 -1.346987e-001 0.000000e+000
      outer loop
         vertex 4.897650e+000 -1.006493e+000 5.000000e-001
         vertex 4.974347e+000 -5.058416e-001 -5.000000e-001
         vertex 4.974347e+000 -5.058416e-001 5.000000e-001
      endloop
   endfacet
   facet normal 9.977177e-001 -6.752258e-002 0.000000e+000
      outer loop
         vertex 4.974347e+000 -5.058416e-001 5.000000e-001
         vertex 4.974347e+000 -5.058416e-001 -5.000000e-001
         vertex 5.000000e+000 2.832769e-015 -5.000000e-001
      endloop
   endfacet
   facet normal 9.994299e-001 -3.376129e-002 0.000000e+000
      outer loop
         vertex 4.974347e+000 -5.058416e-001 5.000000e-001
         vertex 5.000000e+000 2.832769e-015 -5.000000e-001
         vertex 5.000000e+000 2.832769e-015 5.000000e-001
      endloop
   endfacet
   facet normal 9.994299e-001 3.376129e-002 0.000000e+000
      outer loop
         vertex 5.000000e+000 2.832769e-015 5.000000e-001
         vertex 5.000000e+000 2.832769e-015 -5.000000e-001
         vertex 4.974347e+000 5.058416e-001 -5.000000e-001
      endloop
   endfacet
   facet normal 9.977177e-001 6.752258e-002 0.000000e+000
      outer loop
         vertex 5.000000e+000 2.832769e-015 5.000000e-001
         vertex 4.974347e+000 5.058416e-001 -5.000000e-001
         vertex 4.974347e+000 5.058416e-001 5.000000e-001
      endloop
   endfacet
   facet normal 9.908866e-001 1.346987e-001 0.000000e+000
      outer loop
         vertex 4.974347e+000 5.058416e-001 5.000000e-001
         vertex 4.974347e+000 5.058416e-001 -5.000000e-001
         vertex 4.897650e+000 1.006493e+000 -5.000000e-001
      endloop
   endfacet
   facet normal 9.857677e-001 1.681136e-001 0.000000e+000
      outer loop
         vertex 4.974347e+000 5.058416e-001 5.000000e-001
         vertex 4.897650e+000 1.006493e+000 -5.000000e-001
         vertex 4.897650e+000 1.006493e+000 5.000000e-001
      endloop
   endfacet
   facet normal 9.721754e-001 2.342540e-001 0.000000e+000
      outer loop
         vertex 4.897650e+000 1.006493e+000 5.000000e-001
         vertex 4.897650e+000 1.006493e+000 -5.000000e-001
         vertex 4.770696e+000 1.496816e+000 -5.000000e-001
      endloop
   endfacet
   facet normal 9.637022e-001 2.669795e-001 0.000000e+000
      outer loop
         vertex 4.897650e+000 1.006493e+000 5.000000e-001
         vertex 4.770696e+000 1.496816e+000 -5.000000e-001
         vertex 4.770696e+000 1.496816e+000 5.000000e-001
      endloop
   endfacet
   facet normal 9.434884e-001 3.314055e-001 0.000000e+000
      outer loop
         vertex 4.770696e+000 1.496816e+000 5.000000e-001
         vertex 4.770696e+000 1.496816e+000 -5.000000e-001
         vertex 4.594789e+000 1.971779e+000 -5.000000e-001
      endloop
   endfacet
   facet normal 9.317479e-001 3.631058e-001 0.000000e+000
      outer loop
         vertex 4.770696e+000 1.496816e+000 5.000000e-001
         vertex 4.594789e+000 1.971779e+000 -5.000000e-001
         vertex 4.594789e+000 1.971779e+000 5.000000e-001
      endloop
   endfacet
   facet normal 9.051200e-001 4.251562e-001 0.000000e+000
      outer loop
         vertex 4.594789e+000 1.971779e+000 5.000000e-001
         vertex 4.594789e+000 1.971779e+000 -5.000000e-001
         vertex 4.371733e+000 2.426510e+000 -5.000000e-001
      endloop
   endfacet
   facet normal 8.902326e-001 4.555062e-001 0.000000e+000
      outer loop
         vertex 4.594789e+000 1.971779e+000 5.000000e-001
         vertex 4.371733e+000 2.426510e+000 -5.000000e-001
         vertex 4.371733e+000 2.426510e+000 5.000000e-001
      endloop
   endfacet
   facet normal 8.574637e-001 5.145444e-001 0.000000e+000
      outer loop
         vertex 4.371733e+000 2.426510e+000 5.000000e-001
         vertex 4.371733e+000 2.426510e+000 -5.000000e-001
         vertex 4.103817e+000 2.856341e+000 -5.000000e-001
      endloop
   endfacet
   facet normal 8.395823e-001 5.432325e-001 0.000000e+000
      outer loop
         vertex 4.371733e+000 2.426510e+000 5.000000e-001
         vertex 4.103817e+000 2.856341e+000 -5.000000e-001
         vertex 4.103817e+000 2.856341e+000 5.000000e-001
      endloop
   endfacet
   facet normal 8.010088e-001 5.986526e-001 0.000000e+000
      outer loop
         vertex 4.103817e+000 2.856341e+000 5.000000e-001
         vertex 4.103817e+000 2.856341e+000 -5.000000e-001
         vertex 3.793791e+000 3.256862e+000 -5.000000e-001
      endloop
   endfacet
   facet normal 7.803167e-001 6.253844e-001 0.000000e+000
      outer loop
         vertex 4.103817e+000 2.856341e+000 5.000000e-001
         vertex 3.793791e+000 3.256862e+000 -5.000000e-001
         vertex 3.793791e+000 3.256862e+000 5.000000e-001
      endloop
   endfacet
   facet normal 7.363344e-001 6.766178e-001 0.000000e+000
      outer loop
         vertex 3.793791e+000 3.256862e+000 5.000000e-001
         vertex 3.793791e+000 3.256862e+000 -5.000000e-001
         vertex 3.444835e+000 3.623964e+000 -5.000000e-001
      endloop
   endfacet
   facet normal 7.130441e-001 7.011192e-001 0.000000e+000
      outer loop
         vertex 3.793791e+000 3.256862e+000 5.000000e-001
         vertex 3.444835e+000 3.623964e+000 -5.000000e-001
         vertex 3.444835e+000 3.623964e+000 5.000000e-001
      endloop
   endfacet
   facet normal 6.641042e-001 7.476400e-001 0.000000e+000
      outer loop
         vertex 3.444835e+000 3.623964e+000 5.000000e-001
         vertex 3.444835e+000 3.623964e+000 -5.000000e-001
         vertex 3.060530e+000 3.953879e+000 -5.000000e-001
      endloop
   endfacet
   facet normal 6.384546e-001 7.696595e-001 0.000000e+000
      outer loop
         vertex 3.444835e+000 3.623964e+000 5.000000e-001
         vertex 3.060530e+000 3.953879e+000 -5.000000e-001
         vertex 3.060530e+000 3.953879e+000 5.000000e-001
      endloop
   endfacet
   facet normal 5.850594e-001 8.109904e-001 0.000000e+000
      outer loop
         vertex 3.060530e+000 3.953879e+000 5.000000e-001
         vertex 3.060530e+000 3.953879e+000 -5.000000e-001
         vertex 2.644820e+000 4.243221e+000 -5.000000e-001
      endloop
   endfacet
   facet normal 5.573137e-001 8.303019e-001 0.000000e+000
      outer loop
         vertex 3.060530e+000 3.953879e+000 5.000000e-001
         vertex 2.644820e+000 4.243221e+000 -5.000000e-001
         vertex 2.644820e+000 4.243221e+000 5.000000e-001
      endloop
   endfacet
   facet normal 5.000111e-001 8.660190e-001 0.000000e+000
      outer loop
         vertex 2.644820e+000 4.243221e+000 5.000000e-001
         vertex 2.644820e+000 4.243221e+000 -5.000000e-001
         vertex 2.201971e+000 4.489023e+000 -5.000000e-001
      endloop
   endfacet
   facet normal 4.704541e-001 8.824245e-001 0.000000e+000
      outer loop
         vertex 2.644820e+000 4.243221e+000 5.000000e-001
         vertex 2.201971e+000 4.489023e+000 -5.000000e-001
         vertex 2.201971e+000 4.489023e+000 5.000000e-001
      endloop
   endfacet
   facet normal 4.098321e-001 9.121610e-001 0.000000e+000
      outer loop
         vertex 2.201971e+000 4.489023e+000 5.000000e-001
         vertex 2.201971e+000 4.489023e+000 -5.000000e-001
         vertex 1.736526e+000 4.688761e+000 -5.000000e-001
      endloop
   endfacet
   facet normal 3.787670e-001 9.254920e-001 0.000000e+000
      outer loop
         vertex 2.201971e+000 4.489023e+000 5.000000e-001
         vertex 1.736526e+000 4.688761e+000 -5.000000e-001
         vertex 1.736526e+000 4.688761e+000 5.000000e-001
      endloop
   endfacet
   facet normal 3.154475e-001 9.489430e-001 0.000000e+000
      outer loop
         vertex 1.736526e+000 4.688761e+000 5.000000e-001
         vertex 1.736526e+000 4.688761e+000 -5.000000e-001
         vertex 1.253263e+000 4.840385e+000 -5.000000e-001
      endloop
   endfacet
   facet normal 2.831932e-001 9.590629e-001 0.000000e+000
      outer loop
         vertex 1.736526e+000 4.688761e+000 5.000000e-001
         vertex 1.253263e+000 4.840385e+000 -5.000000e-001
         vertex 1.253263e+000 4.840385e+000 5.000000e-001
      endloop
   endfacet
   facet normal 2.178261e-001 9.759876e-001 0.000000e+000
      outer loop
         vertex 1.253263e+000 4.840385e+000 5.000000e-001
         vertex 1.253263e+000 4.840385e+000 -5.000000e-001
         vertex 7.571389e-001 4.942342e+000 -5.000000e-001
      endloop
   endfacet
   facet normal 1.847134e-001 9.827924e-001 0.000000e+000
      outer loop
         vertex 1.253263e+000 4.840385e+000 5.000000e-001
         vertex 7.571389e-001 4.942342e+000 -5.000000e-001
         vertex 7.571389e-001 4.942342e+000 5.000000e-001
      endloop
   endfacet
   facet normal 1.179695e-001 9.930172e-001 0.000000e+000
      outer loop
         vertex 7.571389e-001 4.942342e+000 5.000000e-001
         vertex 7.571389e-001 4.942342e+000 -5.000000e-001
         vertex 2.532458e-001 4.993583e+000 -5.000000e-001
      endloop
   endfacet
   facet normal 8.433825e-002 9.964372e-001 0.000000e+000
      outer loop
         vertex 7.571389e-001 4.942342e+000 5.000000e-001
         vertex 2.532458e-001 4.993583e+000 -5.000000e-001
         vertex 2.532458e-001 4.993583e+000 5.000000e-001
      endloop
   endfacet
   facet normal 1.690234e-002 9.998571e-001 0.000000e+000
      outer loop
         vertex 2.532458e-001 4.993583e+000 5.000000e-001
         vertex 2.532458e-001 4.993583e+000 -5.000000e-001
         vertex -2.532458e-001 4.993583e+000 -5.000000e-001
      endloop
   endfacet
   facet normal -1.690234e-002 9.998571e-001 0.000000e+000
      outer loop
         vertex 2.532458e-001 4.993583e+000 5.000000e-001
         vertex -2.532458e-001 4.993583e+000 -5.000000e-001
         vertex -2.532458e-001 4.993583e+000 5.000000e-001
      endloop
   endfacet
   facet normal -8.433825e-002 9.964372e-001 0.000000e+000
      outer loop
         vertex -2.532458e-001 4.993583e+000 5.000000e-001
         vertex -2.532458e-001 4.993583e+000 -5.000000e-001
         vertex -7.571389e-001 4.942342e+000 -5.000000e-001
      endloop
   endfacet
   facet normal -1.179695e-001 9.930172e-001 0.000000e+000
      outer loop
         vertex -2.532458e-001 4.993583e+000 5.000000e-001
         vertex -7.571389e-001 4.942342e+000 -5.000000e-001
         vertex -7.571389e-001 4.942342e+000 5.000000e-001
      endloop
   endfacet
   facet normal -1.847134e-001 9.827924e-001 0.000000e+000
      outer loop
         vertex -7.571389e-001 4.942342e+000 5.000000e-001
         vertex -7.571389e-001 4.942342e+000 -5.000000e-001
         vertex -1.253263e+000 4.840385e+000 -5.000000e-001
      endloop
   endfacet
   facet normal -2.178261e-001 9.759876e-001 0.000000e+000
      outer loop
         vertex -7.571389e-001 4.942342e+000 5.000000e-001
         vertex -1.253263e+000 4.840385e+000 -5.000000e-001
         vertex -1.253263e+000 4.840385e+000 5.000000e-001
      endloop
   endfacet
   facet normal -2.831932e-001 9.590629e-001 0.000000e+000
      outer loop
         vertex -1.253263e+000 4.840385e+000 5.000000e-001
         vertex -1.253263e+000 4.840385e+000 -5.000000e-001
         vertex -1.736526e+000 4.688761e+000 -5.000000e-001
      endloop
   endfacet
   facet normal -3.154475e-001 9.489430e-001 0.000000e+000
      outer loop
         vertex -1.253263e+000 4.840385e+000 5.000000e-001
         vertex -1.736526e+000 4.688761e+000 -5.000000e-001
         vertex -1.736526e+000 4.688761e+000 5.000000e-001
      endloop
   endfacet
   facet normal -3.787670e-001 9.254920e-001 0.000000e+000
      outer loop
         vertex -1.736526e+000 4.688761e+000 5.000000e-001
         vertex -1.736526e+000 4.688761e+000 -5.000000e-001
         vertex -2.201971e+000 4.489023e+000 -5.000000e-001
      endloop
   endfacet
   facet normal -4.098321e-001 9.121610e-001 0.000000e+000
      outer loop
         vertex -1.736526e+000 4.688761e+000 5.000000e-001
         vertex -2.201971e+000 4.489023e+000 -5.000000e-001
         vertex -2.201971e+000 4.489023e+000 5.000000e-001
      endloop
   endfacet
   facet normal -4.704541e-001 8.824245e-001 0.000000e+000
      outer loop
         vertex -2.201971e+000 4.489023e+000 5.000000e-001
         vertex -2.201971e+000 4.489023e+000 -5.000000e-001
         vertex -2.644820e+000 4.243221e+000 -5.000000e-001
      endloop
   endfacet
   facet normal -5.000111e-001 8.660190e-001 0.000000e+000
      outer loop
         vertex -2.201971e+000 4.489023e+000 5.000000e-001
         vertex -2.644820e+000 4.243221e+000 -5.000000e-001
         vertex -2.644820e+000 4.243221e+000 5.000000e-001
      endloop
   endfacet
   facet normal -5.573137e-001 8.303019e-001 0.000000e+000
      outer loop
         vertex -2.644820e+000 4.243221e+000 5.000000e-001
         vertex -2.644820e+000 4.243221e+000 -5.000000e-001
         vertex -3.060530e+000 3.953879e+000 -5.000000e-001
      endloop
   endfacet
   facet normal -5.850594e-001 8.109904e-001 0.000000e+000
      outer loop
         vertex -2.644820e+000 4.243221e+000 5.000000e-001
         vertex -3.060530e+000 3.953879e+000 -5.000000e-001
         vertex -3.060530e+000 3.953879e+000 5.000000e-001
      endloop
   endfacet
   facet normal -6.384546e-001 7.696595e-001 0.000000e+000
      outer loop
         vertex -3.060530e+000 3.953879e+000 5.000000e-001
         vertex -3.060530e+000 3.953879e+000 -5.000000e-001
         vertex -3.444835e+000 3.623964e+000 -5.000000e-001
      endloop
   endfacet
   facet normal -6.641042e-001 7.476400e-001 0.000000e+000
      outer loop
         vertex -3.060530e+000 3.953879e+000 5.000000e-001
         vertex -3.444835e+000 3.623964e+000 -5.000000e-001
         vertex -3.444835e+000 3.623964e+000 5.000000e-001
      endloop
   endfacet
   facet normal -7.130441e-001 7.011192e-001 0.000000e+000
      outer loop
         vertex -3.444835e+000 3.623964e+000 5.000000e-001
         vertex -3.444835e+000 3.623964e+000 -5.000000e-001
         vertex -3.793791e+000 3.256862e+000 -5.000000e-001
      endloop
   endfacet
   facet normal -7.363344e-001 6.766178e-001 0.000000e+000
      outer loop
         vertex -3.444835e+000 3.623964e+000 5.000000e-001
         vertex -3.793791e+000 3.256862e+000 -5.000000e-001
         vertex -3.793791e+000 3.256862e+000 5.000000e-001
      endloop
   endfacet
   facet normal -7.803167e-001 6.253844e-001 0.000000e+000
      outer loop
         vertex -3.793791e+000 3.256862e+000 5.000000e-001
         vertex -3.793791e+000 3.256862e+000 -5.000000e-001
         vertex -4.103817e+000 2.856341e+000 -5.000000e-001
      endloop
   endfacet
   facet normal -8.010088e-001 5.986526e-001 0.000000e+000
      outer loop
         vertex -3.793791e+000 3.256862e+000 5.000000e-001
         vertex -4.103817e+000 2.856341e+000 -5.000000e-001
         vertex -4.103817e+000 2.856341e+000 5.000000e-001
      endloop
   endfacet
   facet normal -8.395823e-001 5.432325e-001 0.000000e+000
      outer loop
         vertex -4.103817e+000 2.856341e+000 5.000000e-001
         vertex -4.103817e+000 2.856341e+000 -5.000000e-001
         vertex -4.371733e+000 2.426510e+000 -5.000000e-001
      endloop
   endfacet
   facet normal -8.574637e-001 5.145444e-001 0.000000e+000
      outer loop
         vertex -4.103817e+000 2.856341e+000 5.000000e-001
         vertex -4.371733e+000 2.426510e+000 -5.000000e-001
         vertex -4.371733e+000 2.426510e+000 5.000000e-001
      endloop
   endfacet
   facet normal -8.902326e-001 4.555062e-001 0.000000e+000
      outer loop
         vertex -4.371733e+000 2.426510e+000 5.000000e-001
         vertex -4.371733e+000 2.426510e+000 -5.000000e-001
         vertex -4.594789e+000 1.971779e+000 -5.000000e-001
      endloop
   endfacet
   facet normal -9.051200e-001 4.251562e-001 0.000000e+000
      outer loop
         vertex -4.371733e+000 2.426510e+000 5.000000e-001
         vertex -4.594789e+000 1.971779e+000 -5.000000e-001
         vertex -4.594789e+000 1.971779e+000 5.000000e-001
      endloop
   endfacet
   facet normal -9.317479e-001 3.631058e-001 0.000000e+000
      outer loop
         vertex -4.594789e+000 1.971779e+000 5.000000e-001
         vertex -4.594789e+000 1.971779e+000 -5.000000e-001
         vertex -4.770696e+000 1.496816e+000 -5.000000e-001
      endloop
   endfacet
   facet normal -9.434884e-001 3.314055e-001 0.000000e+000
      outer loop
         vertex -4.594789e+000 1.971779e+000 5.000000e-001
         vertex -4.770696e+000 1.496816e+000 -5.000000e-001
         vertex -4.770696e+000 1.496816e+000 5.000000e-001
      endloop
   endfacet
   facet normal -9.637022e-001 2.669795e-001 0.000000e+000
      outer loop
         vertex -4.770696e+000 1.496816e+000 5.000000e-001
         vertex -4.770696e+000 1.496816e+000 -5.000000e-001
         vertex -4.897650e+000 1.006493e+000 -5.000000e-001
      endloop
   endfacet
   facet normal -9.721754e-001 2.342540e-001 0.000000e+000
      outer loop
         vertex -4.770696e+000 1.496816e+000 5.000000e-001
         vertex -4.897650e+000 1.006493e+000 -5.000000e-001
         vertex -4.897650e+000 1.006493e+000 5.000000e-001
      endloop
   endfacet
   facet normal -9.857677e-001 1.681136e-001 0.000000e+000
      outer loop
         vertex -4.897650e+000 1.006493e+000 5.000000e-001
         vertex -4.897650e+000 1.006493e+000 -5.000000e-001
         vertex -4.974347e+000 5.058416e-001 -5.000000e-001
      endloop
   endfacet
   facet normal -9.908866e-001 1.346987e-001 0.000000e+000
      outer loop
         vertex -4.897650e+000 1.006493e+000 5.000000e-001
         vertex -4.974347e+000 5.058416e-001 -5.000000e-001
         vertex -4.974347e+000 5.058416e-001 5.000000e-001
      endloop
   endfacet
   facet normal -9.977177e-001 6.752258e-002 0.000000e+000
      outer loop
         vertex -4.974347e+000 5.058416e-001 5.000000e-001
         vertex -4.974347e+000 5.058416e-001 -5.000000e-001
         vertex -5.000000e+000 0.000000e+000 -5.000000e-001
      endloop
   endfacet
   facet normal 0.000000e+000 0.000000e+000 1.000000e+000
      outer loop
         vertex 4.974347e+000 -5.058416e-001 5.000000e-001
         vertex 5.000000e+000 6.123234e-016 5.000000e-001
         vertex 4.897650e+000 -1.006493e+000 5.000000e-001
      endloop
   endfacet
   facet normal 0.000000e+000 0.000000e+000 1.000000e+000
      outer loop
         vertex 4.897650e+000 -1.006493e+000 5.000000e-001
         vertex 5.000000e+000 6.123234e-016 5.000000e-001
         vertex -4.897650e+000 1.006493e+000 5.000000e-001
      endloop
   endfacet
   facet normal 0.000000e+000 0.000000e+000 1.000000e+000
      outer loop
         vertex -5.000000e+000 0.000000e+000 5.000000e-001
         vertex -4.974347e+000 -5.058416e-001 5.000000e-001
         vertex -4.897650e+000 -1.006493e+000 5.000000e-001
      endloop
   endfacet
   facet normal 0.000000e+000 0.000000e+000 1.000000e+000
      outer loop
         vertex 1.253263e+000 4.840385e+000 5.000000e-001
         vertex 7.571389e-001 4.942342e+000 5.000000e-001
         vertex 2.532458e-001 4.993583e+000 5.000000e-001
      endloop
   endfacet
   facet normal 0.000000e+000 0.000000e+000 1.000000e+000
      outer loop
         vertex -7.571389e-001 4.942342e+000 5.000000e-001
         vertex -1.253263e+000 4.840385e+000 5.000000e-001
         vertex -4.897650e+000 1.006493e+000 5.000000e-001
      endloop
   endfacet
   facet normal 0.000000e+000 0.000000e+000 1.000000e+000
      outer loop
         vertex 4.770696e+000 -1.496816e+000 5.000000e-001
         vertex 4.897650e+000 -1.006493e+000 5.000000e-001
         vertex 4.594789e+000 -1.971779e+000 5.000000e-001
      endloop
   endfacet
   facet normal 0.000000e+000 0.000000e+000 1.000000e+000
      outer loop
         vertex 4.594789e+000 -1.971779e+000 5.000000e-001
         vertex 4.897650e+000 -1.006493e+000 5.000000e-001
         vertex -4.897650e+000 1.006493e+000 5.000000e-001
      endloop
   endfacet
   facet normal 0.000000e+000 0.000000e+000 1.000000e+000
      outer loop
         vertex 4.594789e+000 -1.971779e+000 5.000000e-001
         vertex -4.897650e+000 1.006493e+000 5.000000e-001
         vertex 4.371733e+000 -2.426510e+000 5.000000e-001
      endloop
   endfacet
   facet normal 0.000000e+000 0.000000e+000 1.000000e+000
      outer loop
         vertex 4.371733e+000 -2.426510e+000 5.000000e-001
         vertex -4.897650e+000 1.006493e+000 5.000000e-001
         vertex -4.974347e+000 5.058416e-001 5.000000e-001
      endloop
   endfacet
   facet normal 0.000000e+000 0.000000e+000 1.000000e+000
      outer loop
         vertex 4.371733e+000 -2.426510e+000 5.000000e-001
         vertex -4.974347e+000 5.058416e-001 5.000000e-001
         vertex -5.000000e+000 0.000000e+000 5.000000e-001
      endloop
   endfacet
   facet normal 0.000000e+000 0.000000e+000 1.000000e+000
      outer loop
         vertex 4.770696e+000 1.496816e+000 5.000000e-001
         vertex 4.594789e+000 1.971779e+000 5.000000e-001
         vertex 4.897650e+000 1.006493e+000 5.000000e-001
      endloop
   endfacet
   facet normal 0.000000e+000 0.000000e+000 1.000000e+000
      outer loop
         vertex 4.897650e+000 1.006493e+000 5.000000e-001
         vertex 4.594789e+000 1.971779e+000 5.000000e-001
         vertex -4.897650e+000 1.006493e+000 5.000000e-001
      endloop
   endfacet
   facet normal 0.000000e+000 0.000000e+000 1.000000e+000
      outer loop
         vertex 4.897650e+000 1.006493e+000 5.000000e-001
         vertex -4.897650e+000 1.006493e+000 5.000000e-001
         vertex 4.974347e+000 5.058416e-001 5.000000e-001
      endloop
   endfacet
   facet normal 0.000000e+000 0.000000e+000 1.000000e+000
      outer loop
         vertex 4.974347e+000 5.058416e-001 5.000000e-001
         vertex -4.897650e+000 1.006493e+000 5.000000e-001
         vertex 5.000000e+000 6.123234e-016 5.000000e-001
      endloop
   endfacet
   facet normal 0.000000e+000 0.000000e+000 1.000000e+000
      outer loop
         vertex -5.000000e+000 0.000000e+000 5.000000e-001
         vertex -4.897650e+000 -1.006493e+000 5.000000e-001
         vertex 4.371733e+000 -2.426510e+000 5.000000e-001
      endloop
   endfacet
   facet normal 0.000000e+000 0.000000e+000 1.000000e+000
      outer loop
         vertex 4.371733e+000 -2.426510e+000 5.000000e-001
         vertex -4.897650e+000 -1.006493e+000 5.000000e-001
         vertex -4.770696e+000 -1.496816e+000 5.000000e-001
      endloop
   endfacet
   facet normal 0.000000e+000 0.000000e+000 1.000000e+000
      outer loop
         vertex 4.371733e+000 -2.426510e+000 5.000000e-001
         vertex -4.770696e+000 -1.496816e+000 5.000000e-001
         vertex -4.594789e+000 -1.971779e+000 5.000000e-001
      endloop
   endfacet
   facet normal 0.000000e+000 0.000000e+000 1.000000e+000
      outer loop
         vertex 3.793791e+000 3.256862e+000 5.000000e-001
         vertex 3.444835e+000 3.623964e+000 5.000000e-001
         vertex 4.103817e+000 2.856341e+000 5.000000e-001
      endloop
   endfacet
   facet normal 0.000000e+000 0.000000e+000 1.000000e+000
      outer loop
         vertex 4.103817e+000 2.856341e+000 5.000000e-001
         vertex 3.444835e+000 3.623964e+000 5.000000e-001
         vertex -4.897650e+000 1.006493e+000 5.000000e-001
      endloop
   endfacet
   facet normal 0.000000e+000 0.000000e+000 1.000000e+000
      outer loop
         vertex 4.103817e+000 2.856341e+000 5.000000e-001
         vertex -4.897650e+000 1.006493e+000 5.000000e-001
         vertex 4.371733e+000 2.426510e+000 5.000000e-001
      endloop
   endfacet
   facet normal 0.000000e+000 0.000000e+000 1.000000e+000
      outer loop
         vertex 4.371733e+000 2.426510e+000 5.000000e-001
         vertex -4.897650e+000 1.006493e+000 5.000000e-001
         vertex 4.594789e+000 1.971779e+000 5.000000e-001
      endloop
   endfacet
   facet normal 0.000000e+000 0.000000e+000 1.000000e+000
      outer loop
         vertex 3.444835e+000 3.623964e+000 5.000000e-001
         vertex 3.060530e+000 3.953879e+000 5.000000e-001
         vertex -4.897650e+000 1.006493e+000 5.000000e-001
      endloop
   endfacet
   facet normal 0.000000e+000 0.000000e+000 1.000000e+000
      outer loop
         vertex -4.897650e+000 1.006493e+000 5.000000e-001
         vertex 3.060530e+000 3.953879e+000 5.000000e-001
         vertex 2.644820e+000 4.243221e+000 5.000000e-001
      endloop
   endfacet
   facet normal 0.000000e+000 0.000000e+000 1.000000e+000
      outer loop
         vertex -4.897650e+000 1.006493e+000 5.000000e-001
         vertex 2.644820e+000 4.243221e+000 5.000000e-001
         vertex 2.201971e+000 4.489023e+000 5.000000e-001
      endloop
   endfacet
   facet normal 0.000000e+000 0.000000e+000 1.000000e+000
      outer loop
         vertex -2.201971e+000 4.489023e+000 5.000000e-001
         vertex -2.644820e+000 4.243221e+000 5.000000e-001
         vertex -3.060530e+000 3.953879e+000 5.000000e-001
      endloop
   endfacet
   facet normal 0.000000e+000 0.000000e+000 1.000000e+000
      outer loop
         vertex -3.444835e+000 -3.623964e+000 5.000000e-001
         vertex -3.060530e+000 -3.953879e+000 5.000000e-001
         vertex -3.793791e+000 -3.256862e+000 5.000000e-001
      endloop
   endfacet
   facet normal 0.000000e+000 0.000000e+000 1.000000e+000
      outer loop
         vertex -3.793791e+000 -3.256862e+000 5.000000e-001
         vertex -3.060530e+000 -3.953879e+000 5.000000e-001
         vertex 4.371733e+000 -2.426510e+000 5.000000e-001
      endloop
   endfacet
   facet normal 0.000000e+000 0.000000e+000 1.000000e+000
      outer loop
         vertex -3.793791e+000 -3.256862e+000 5.000000e-001
         vertex 4.371733e+000 -2.426510e+000 5.000000e-001
         vertex -4.103817e+000 -2.856341e+000 5.000000e-001
      endloop
   endfacet
   facet normal 0.000000e+000 0.000000e+000 1.000000e+000
      outer loop
         vertex -4.103817e+000 -2.856341e+000 5.000000e-001
         vertex 4.371733e+000 -2.426510e+000 5.000000e-001
         vertex -4.594789e+000 -1.971779e+000 5.000000e-001
      endloop
   endfacet
   facet normal 0.000000e+000 0.000000e+000 1.000000e+000
      outer loop
         vertex -4.103817e+000 -2.856341e+000 5.000000e-001
         vertex -4.594789e+000 -1.971779e+000 5.000000e-001
         vertex -4.371733e+000 -2.426510e+000 5.000000e-001
      endloop
   endfacet
   facet normal 0.000000e+000 0.000000e+000 1.000000e+000
      outer loop
         vertex -1.253263e+000 -4.840385e+000 5.000000e-001
         vertex -7.571389e-001 -4.942342e+000 5.000000e-001
         vertex -1.736526e+000 -4.688761e+000 5.000000e-001
      endloop
   endfacet
   facet normal 0.000000e+000 0.000000e+000 1.000000e+000
      outer loop
         vertex -1.736526e+000 -4.688761e+000 5.000000e-001
         vertex -7.571389e-001 -4.942342e+000 5.000000e-001
         vertex -2.532458e-001 -4.993583e+000 5.000000e-001
      endloop
   endfacet
   facet normal 0.000000e+000 0.000000e+000 1.000000e+000
      outer loop
         vertex -1.736526e+000 -4.688761e+000 5.000000e-001
         vertex -2.532458e-001 -4.993583e+000 5.000000e-001
         vertex -2.201971e+000 -4.489023e+000 5.000000e-001
      endloop
   endfacet
   facet normal 0.000000e+000 0.000000e+000 1.000000e+000
      outer loop
         vertex -2.201971e+000 -4.489023e+000 5.000000e-001
         vertex -2.532458e-001 -4.993583e+000 5.000000e-001
         vertex 2.532458e-001 -4.993583e+000 5.000000e-001
      endloop
   endfacet
   facet normal 0.000000e+000 0.000000e+000 1.000000e+000
      outer loop
         vertex -2.201971e+000 -4.489023e+000 5.000000e-001
         vertex 2.532458e-001 -4.993583e+000 5.000000e-001
         vertex -2.644820e+000 -4.243221e+000 5.000000e-001
      endloop
   endfacet
   facet normal 0.000000e+000 0.000000e+000 1.000000e+000
      outer loop
         vertex -2.644820e+000 -4.243221e+000 5.000000e-001
         vertex 2.532458e-001 -4.993583e+000 5.000000e-001
         vertex 7.571389e-001 -4.942342e+000 5.000000e-001
      endloop
   endfacet
   facet normal 0.000000e+000 0.000000e+000 1.000000e+000
      outer loop
         vertex -2.644820e+000 -4.243221e+000 5.000000e-001
         vertex 7.571389e-001 -4.942342e+000 5.000000e-001
         vertex -3.060530e+000 -3.953879e+000 5.000000e-001
      endloop
   endfacet
   facet normal 0.000000e+000 0.000000e+000 1.000000e+000
      outer loop
         vertex -3.060530e+000 -3.953879e+000 5.000000e-001
         vertex 7.571389e-001 -4.942342e+000 5.000000e-001
         vertex 1.253263e+000 -4.840385e+000 5.000000e-001
      endloop
   endfacet
   facet normal 0.000000e+000 0.000000e+000 1.000000e+000
      outer loop
         vertex -3.060530e+000 -3.953879e+000 5.000000e-001
         vertex 1.253263e+000 -4.840385e+000 5.000000e-001
         vertex 1.736526e+000 -4.688761e+000 5.000000e-001
      endloop
   endfacet
   facet normal 0.000000e+000 0.000000e+000 1.000000e+000
      outer loop
         vertex -2.532458e-001 4.993583e+000 5.000000e-001
         vertex -7.571389e-001 4.942342e+000 5.000000e-001
         vertex 2.532458e-001 4.993583e+000 5.000000e-001
      endloop
   endfacet
   facet normal 0.000000e+000 0.000000e+000 1.000000e+000
      outer loop
         vertex 2.532458e-001 4.993583e+000 5.000000e-001
         vertex -7.571389e-001 4.942342e+000 5.000000e-001
         vertex -4.897650e+000 1.006493e+000 5.000000e-001
      endloop
   endfacet
   facet normal 0.000000e+000 0.000000e+000 1.000000e+000
      outer loop
         vertex 2.532458e-001 4.993583e+000 5.000000e-001
         vertex -4.897650e+000 1.006493e+000 5.000000e-001
         vertex 1.253263e+000 4.840385e+000 5.000000e-001
      endloop
   endfacet
   facet normal 0.000000e+000 0.000000e+000 1.000000e+000
      outer loop
         vertex 1.253263e+000 4.840385e+000 5.000000e-001
         vertex -4.897650e+000 1.006493e+000 5.000000e-001
         vertex 2.201971e+000 4.489023e+000 5.000000e-001
      endloop
   endfacet
   facet normal 0.000000e+000 0.000000e+000 1.000000e+000
      outer loop
         vertex 1.253263e+000 4.840385e+000 5.000000e-001
         vertex 2.201971e+000 4.489023e+000 5.000000e-001
         vertex 1.736526e+000 4.688761e+000 5.000000e-001
      endloop
   endfacet
   facet normal 0.000000e+000 0.000000e+000 1.000000e+000
      outer loop
         vertex -1.253263e+000 4.840385e+000 5.000000e-001
         vertex -1.736526e+000 4.688761e+000 5.000000e-001
         vertex -2.201971e+000 4.489023e+000 5.000000e-001
      endloop
   endfacet
   facet normal 0.000000e+000 0.000000e+000 1.000000e+000
      outer loop
         vertex -2.201971e+000 4.489023e+000 5.000000e-001
         vertex -3.060530e+000 3.953879e+000 5.000000e-001
         vertex -1.253263e+000 4.840385e+000 5.000000e-001
      endloop
   endfacet
   facet normal 0.000000e+000 0.000000e+000 1.000000e+000
      outer loop
         vertex -1.253263e+000 4.840385e+000 5.000000e-001
         vertex -3.060530e+000 3.953879e+000 5.000000e-001
         vertex -3.444835e+000 3.623964e+000 5.000000e-001
      endloop
   endfacet
   facet normal 0.000000e+000 0.000000e+000 1.000000e+000
      outer loop
         vertex -1.253263e+000 4.840385e+000 5.000000e-001
         vertex -3.444835e+000 3.623964e+000 5.000000e-001
         vertex -3.793791e+000 3.256862e+000 5.000000e-001
      endloop
   endfacet
   facet normal 0.000000e+000 0.000000e+000 1.000000e+000
      outer loop
         vertex 1.736526e+000 -4.688761e+000 5.000000e-001
         vertex 2.201971e+000 -4.489023e+000 5.000000e-001
         vertex -3.060530e+000 -3.953879e+000 5.000000e-001
      endloop
   endfacet
   facet normal 0.000000e+000 0.000000e+000 1.000000e+000
      outer loop
         vertex -3.060530e+000 -3.953879e+000 5.000000e-001
         vertex 2.201971e+000 -4.489023e+000 5.000000e-001
         vertex 2.644820e+000 -4.243221e+000 5.000000e-001
      endloop
   endfacet
   facet normal 0.000000e+000 0.000000e+000 1.000000e+000
      outer loop
         vertex -3.060530e+000 -3.953879e+000 5.000000e-001
         vertex 2.644820e+000 -4.243221e+000 5.000000e-001
         vertex 3.060530e+000 -3.953879e+000 5.000000e-001
      endloop
   endfacet
   facet normal 0.000000e+000 0.000000e+000 1.000000e+000
      outer loop
         vertex -4.770696e+000 1.496816e+000 5.000000e-001
         vertex -4.897650e+000 1.006493e+000 5.000000e-001
         vertex -4.594789e+000 1.971779e+000 5.000000e-001
      endloop
   endfacet
   facet normal 0.000000e+000 0.000000e+000 1.000000e+000
      outer loop
         vertex -4.594789e+000 1.971779e+000 5.000000e-001
         vertex -4.897650e+000 1.006493e+000 5.000000e-001
         vertex -1.253263e+000 4.840385e+000 5.000000e-001
      endloop
   endfacet
   facet normal 0.000000e+000 0.000000e+000 1.000000e+000
      outer loop
         vertex -4.594789e+000 1.971779e+000 5.000000e-001
         vertex -1.253263e+000 4.840385e+000 5.000000e-001
         vertex -4.371733e+000 2.426510e+000 5.000000e-001
      endloop
   endfacet
   facet normal 0.000000e+000 0.000000e+000 1.000000e+000
      outer loop
         vertex -4.371733e+000 2.426510e+000 5.000000e-001
         vertex -1.253263e+000 4.840385e+000 5.000000e-001
         vertex -3.793791e+000 3.256862e+000 5.000000e-001
      endloop
   endfacet
   facet normal 0.000000e+000 0.000000e+000 1.000000e+000
      outer loop
         vertex -4.371733e+000 2.426510e+000 5.000000e-001
         vertex -3.793791e+000 3.256862e+000 5.000000e-001
         vertex -4.103817e+000 2.856341e+000 5.000000e-001
      endloop
   endfacet
   facet normal 0.000000e+000 0.000000e+000 1.000000e+000
      outer loop
         vertex 4.103817e+000 -2.856341e+000 5.000000e-001
         vertex 4.371733e+000 -2.426510e+000 5.000000e-001
         vertex 3.793791e+000 -3.256862e+000 5.000000e-001
      endloop
   endfacet
   facet normal 0.000000e+000 0.000000e+000 1.000000e+000
      outer loop
         vertex 3.793791e+000 -3.256862e+000 5.000000e-001
         vertex 4.371733e+000 -2.426510e+000 5.000000e-001
         vertex -3.060530e+000 -3.953879e+000 5.000000e-001
      endloop
   endfacet
   facet normal 0.000000e+000 0.000000e+000 1.000000e+000
      outer loop
         vertex 3.793791e+000 -3.256862e+000 5.000000e-001
         vertex -3.060530e+000 -3.953879e+000 5.000000e-001
         vertex 3.444835e+000 -3.623964e+000 5.000000e-001
      endloop
   endfacet
   facet normal 0.000000e+000 0.000000e+000 1.000000e+000
      outer loop
         vertex 3.444835e+000 -3.623964e+000 5.000000e-001
         vertex -3.060530e+000 -3.953879e+000 5.000000e-001
         vertex 3.060530e+000 -3.953879e+000 5.000000e-001
      endloop
   endfacet
   facet normal 0.000000e+000 0.000000e+000 -1.000000e+000
      outer loop
         vertex 4.897650e+000 -1.006493e+000 -5.000000e-001
         vertex 4.770696e+000 -1.496816e+000 -5.000000e-001
         vertex 4.594789e+000 -1.971779e+000 -5.000000e-001
      endloop
   endfacet
   facet normal 0.000000e+000 0.000000e+000 -1.000000e+000
      outer loop
         vertex -4.897650e+000 1.006493e+000 -5.000000e-001
         vertex 4.371733e+000 -2.426510e+000 -5.000000e-001
         vertex 4.103817e+000 -2.856341e+000 -5.000000e-001
      endloop
   endfacet
   facet normal 0.000000e+000 0.000000e+000 -1.000000e+000
      outer loop
         vertex -4.594789e+000 1.971779e+000 -5.000000e-001
         vertex -4.371733e+000 2.426510e+000 -5.000000e-001
         vertex -4.770696e+000 1.496816e+000 -5.000000e-001
      endloop
   endfacet
   facet normal 0.000000e+000 0.000000e+000 -1.000000e+000
      outer loop
         vertex -4.770696e+000 1.496816e+000 -5.000000e-001
         vertex -4.371733e+000 2.426510e+000 -5.000000e-001
         vertex 4.897650e+000 -1.006493e+000 -5.000000e-001
      endloop
   endfacet
   facet normal 0.000000e+000 0.000000e+000 -1.000000e+000
      outer loop
         vertex -4.770696e+000 1.496816e+000 -5.000000e-001
         vertex 4.897650e+000 -1.006493e+000 -5.000000e-001
         vertex -4.897650e+000 1.006493e+000 -5.000000e-001
      endloop
   endfacet
   facet normal 0.000000e+000 0.000000e+000 -1.000000e+000
      outer loop
         vertex -4.897650e+000 1.006493e+000 -5.000000e-001
         vertex 4.897650e+000 -1.006493e+000 -5.000000e-001
         vertex 4.594789e+000 -1.971779e+000 -5.000000e-001
      endloop
   endfacet
   facet normal 0.000000e+000 0.000000e+000 -1.000000e+000
      outer loop
         vertex -4.897650e+000 1.006493e+000 -5.000000e-001
         vertex 4.594789e+000 -1.971779e+000 -5.000000e-001
         vertex 4.371733e+000 -2.426510e+000 -5.000000e-001
      endloop
   endfacet
   facet normal 0.000000e+000 0.000000e+000 -1.000000e+000
      outer loop
         vertex -3.793791e+000 -3.256862e+000 -5.000000e-001
         vertex -4.103817e+000 -2.856341e+000 -5.000000e-001
         vertex -4.897650e+000 1.006493e+000 -5.000000e-001
      endloop
   endfacet
   facet normal 0.000000e+000 0.000000e+000 -1.000000e+000
      outer loop
         vertex 4.103817e+000 -2.856341e+000 -5.000000e-001
         vertex 3.793791e+000 -3.256862e+000 -5.000000e-001
         vertex -4.897650e+000 1.006493e+000 -5.000000e-001
      endloop
   endfacet
   facet normal 0.000000e+000 0.000000e+000 -1.000000e+000
      outer loop
         vertex -4.897650e+000 1.006493e+000 -5.000000e-001
         vertex 3.793791e+000 -3.256862e+000 -5.000000e-001
         vertex 3.444835e+000 -3.623964e+000 -5.000000e-001
      endloop
   endfacet
   facet normal 0.000000e+000 0.000000e+000 -1.000000e+000
      outer loop
         vertex -4.897650e+000 1.006493e+000 -5.000000e-001
         vertex 3.444835e+000 -3.623964e+000 -5.000000e-001
         vertex 3.060530e+000 -3.953879e+000 -5.000000e-001
      endloop
   endfacet
   facet normal 0.000000e+000 0.000000e+000 -1.000000e+000
      outer loop
         vertex -3.060530e+000 3.953879e+000 -5.000000e-001
         vertex -2.644820e+000 4.243221e+000 -5.000000e-001
         vertex 4.897650e+000 -1.006493e+000 -5.000000e-001
      endloop
   endfacet
   facet normal 0.000000e+000 0.000000e+000 -1.000000e+000
      outer loop
         vertex 4.897650e+000 -1.006493e+000 -5.000000e-001
         vertex -2.644820e+000 4.243221e+000 -5.000000e-001
         vertex -2.201971e+000 4.489023e+000 -5.000000e-001
      endloop
   endfacet
   facet normal 0.000000e+000 0.000000e+000 -1.000000e+000
      outer loop
         vertex 1.736526e+000 -4.688761e+000 -5.000000e-001
         vertex 1.253263e+000 -4.840385e+000 -5.000000e-001
         vertex 2.201971e+000 -4.489023e+000 -5.000000e-001
      endloop
   endfacet
   facet normal 0.000000e+000 0.000000e+000 -1.000000e+000
      outer loop
         vertex 2.201971e+000 -4.489023e+000 -5.000000e-001
         vertex 1.253263e+000 -4.840385e+000 -5.000000e-001
         vertex -4.897650e+000 1.006493e+000 -5.000000e-001
      endloop
   endfacet
   facet normal 0.000000e+000 0.000000e+000 -1.000000e+000
      outer loop
         vertex 2.201971e+000 -4.489023e+000 -5.000000e-001
         vertex -4.897650e+000 1.006493e+000 -5.000000e-001
         vertex 2.644820e+000 -4.243221e+000 -5.000000e-001
      endloop
   endfacet
   facet normal 0.000000e+000 0.000000e+000 -1.000000e+000
      outer loop
         vertex 2.644820e+000 -4.243221e+000 -5.000000e-001
         vertex -4.897650e+000 1.006493e+000 -5.000000e-001
         vertex 3.060530e+000 -3.953879e+000 -5.000000e-001
      endloop
   endfacet
   facet normal 0.000000e+000 0.000000e+000 -1.000000e+000
      outer loop
         vertex 1.253263e+000 -4.840385e+000 -5.000000e-001
         vertex 7.571389e-001 -4.942342e+000 -5.000000e-001
         vertex -4.897650e+000 1.006493e+000 -5.000000e-001
      endloop
   endfacet
   facet normal 0.000000e+000 0.000000e+000 -1.000000e+000
      outer loop
         vertex -4.897650e+000 1.006493e+000 -5.000000e-001
         vertex 7.571389e-001 -4.942342e+000 -5.000000e-001
         vertex 2.532458e-001 -4.993583e+000 -5.000000e-001
      endloop
   endfacet
   facet normal 0.000000e+000 0.000000e+000 -1.000000e+000
      outer loop
         vertex -4.897650e+000 1.006493e+000 -5.000000e-001
         vertex 2.532458e-001 -4.993583e+000 -5.000000e-001
         vertex -2.532458e-001 -4.993583e+000 -5.000000e-001
      endloop
   endfacet
   facet normal 0.000000e+000 0.000000e+000 -1.000000e+000
      outer loop
         vertex -3.444835e+000 3.623964e+000 -5.000000e-001
         vertex -3.060530e+000 3.953879e+000 -5.000000e-001
         vertex -3.793791e+000 3.256862e+000 -5.000000e-001
      endloop
   endfacet
   facet normal 0.000000e+000 0.000000e+000 -1.000000e+000
      outer loop
         vertex -3.793791e+000 3.256862e+000 -5.000000e-001
         vertex -3.060530e+000 3.953879e+000 -5.000000e-001
         vertex 4.897650e+000 -1.006493e+000 -5.000000e-001
      endloop
   endfacet
   facet normal 0.000000e+000 0.000000e+000 -1.000000e+000
      outer loop
         vertex -3.793791e+000 3.256862e+000 -5.000000e-001
         vertex 4.897650e+000 -1.006493e+000 -5.000000e-001
         vertex -4.103817e+000 2.856341e+000 -5.000000e-001
      endloop
   endfacet
   facet normal 0.000000e+000 0.000000e+000 -1.000000e+000
      outer loop
         vertex -4.103817e+000 2.856341e+000 -5.000000e-001
         vertex 4.897650e+000 -1.006493e+000 -5.000000e-001
         vertex -4.371733e+000 2.426510e+000 -5.000000e-001
      endloop
   endfacet
   facet normal 0.000000e+000 0.000000e+000 -1.000000e+000
      outer loop
         vertex -2.532458e-001 4.993583e+000 -5.000000e-001
         vertex 2.532458e-001 4.993583e+000 -5.000000e-001
         vertex -7.571389e-001 4.942342e+000 -5.000000e-001
      endloop
   endfacet
   facet normal 0.000000e+000 0.000000e+000 -1.000000e+000
      outer loop
         vertex -7.571389e-001 4.942342e+000 -5.000000e-001
         vertex 2.532458e-001 4.993583e+000 -5.000000e-001
         vertex 4.897650e+000 -1.006493e+000 -5.000000e-001
      endloop
   endfacet
   facet normal 0.000000e+000 0.000000e+000 -1.000000e+000
      outer loop
         vertex -7.571389e-001 4.942342e+000 -5.000000e-001
         vertex 4.897650e+000 -1.006493e+000 -5.000000e-001
         vertex -1.253263e+000 4.840385e+000 -5.000000e-001
      endloop
   endfacet
   facet normal 0.000000e+000 0.000000e+000 -1.000000e+000
      outer loop
         vertex -1.253263e+000 4.840385e+000 -5.000000e-001
         vertex 4.897650e+000 -1.006493e+000 -5.000000e-001
         vertex -2.201971e+000 4.489023e+000 -5.000000e-001
      endloop
   endfacet
   facet normal 0.000000e+000 0.000000e+000 -1.000000e+000
      outer loop
         vertex -1.253263e+000 4.840385e+000 -5.000000e-001
         vertex -2.201971e+000 4.489023e+000 -5.000000e-001
         vertex -1.736526e+000 4.688761e+000 -5.000000e-001
      endloop
   endfacet
   facet normal 0.000000e+000 0.000000e+000 -1.000000e+000
      outer loop
         vertex 2.532458e-001 4.993583e+000 -5.000000e-001
         vertex 7.571389e-001 4.942342e+000 -5.000000e-001
         vertex 4.897650e+000 -1.006493e+000 -5.000000e-001
      endloop
   endfacet
   facet normal 0.000000e+000 0.000000e+000 -1.000000e+000
      outer loop
         vertex 4.897650e+000 -1.006493e+000 -5.000000e-001
         vertex 7.571389e-001 4.942342e+000 -5.000000e-001
         vertex 1.253263e+000 4.840385e+000 -5.000000e-001
      endloop
   endfacet
   facet normal 0.000000e+000 0.000000e+000 -1.000000e+000
      outer loop
         vertex 4.897650e+000 -1.006493e+000 -5.000000e-001
         vertex 1.253263e+000 4.840385e+000 -5.000000e-001
         vertex 1.736526e+000 4.688761e+000 -5.000000e-001
      endloop
   endfacet
   facet normal 0.000000e+000 0.000000e+000 -1.000000e+000
      outer loop
         vertex -4.770696e+000 -1.496816e+000 -5.000000e-001
         vertex -4.897650e+000 -1.006493e+000 -5.000000e-001
         vertex -4.594789e+000 -1.971779e+000 -5.000000e-001
      endloop
   endfacet
   facet normal 0.000000e+000 0.000000e+000 -1.000000e+000
      outer loop
         vertex -4.594789e+000 -1.971779e+000 -5.000000e-001
         vertex -4.897650e+000 -1.006493e+000 -5.000000e-001
         vertex -4.103817e+000 -2.856341e+000 -5.000000e-001
      endloop
   endfacet
   facet normal 0.000000e+000 0.000000e+000 -1.000000e+000
      outer loop
         vertex -4.594789e+000 -1.971779e+000 -5.000000e-001
         vertex -4.103817e+000 -2.856341e+000 -5.000000e-001
         vertex -4.371733e+000 -2.426510e+000 -5.000000e-001
      endloop
   endfacet
   facet normal 0.000000e+000 0.000000e+000 -1.000000e+000
      outer loop
         vertex -4.974347e+000 5.058416e-001 -5.000000e-001
         vertex -4.897650e+000 1.006493e+000 -5.000000e-001
         vertex -5.000000e+000 0.000000e+000 -5.000000e-001
      endloop
   endfacet
   facet normal 0.000000e+000 0.000000e+000 -1.000000e+000
      outer loop
         vertex -5.000000e+000 0.000000e+000 -5.000000e-001
         vertex -4.897650e+000 1.006493e+000 -5.000000e-001
         vertex -4.103817e+000 -2.856341e+000 -5.000000e-001
      endloop
   endfacet
   facet normal 0.000000e+000 0.000000e+000 -1.000000e+000
      outer loop
         vertex -5.000000e+000 0.000000e+000 -5.000000e-001
         vertex -4.103817e+000 -2.856341e+000 -5.000000e-001
         vertex -4.974347e+000 -5.058416e-001 -5.000000e-001
      endloop
   endfacet
   facet normal 0.000000e+000 0.000000e+000 -1.000000e+000
      outer loop
         vertex -4.974347e+000 -5.058416e-001 -5.000000e-001
         vertex -4.103817e+000 -2.856341e+000 -5.000000e-001
         vertex -4.897650e+000 -1.006493e+000 -5.000000e-001
      endloop
   endfacet
   facet normal 0.000000e+000 0.000000e+000 -1.000000e+000
      outer loop
         vertex 4.974347e+000 -5.058416e-001 -5.000000e-001
         vertex 4.897650e+000 -1.006493e+000 -5.000000e-001
         vertex 5.000000e+000 1.836970e-015 -5.000000e-001
      endloop
   endfacet
   facet normal 0.000000e+000 0.000000e+000 -1.000000e+000
      outer loop
         vertex 5.000000e+000 1.836970e-015 -5.000000e-001
         vertex 4.897650e+000 -1.006493e+000 -5.000000e-001
         vertex 3.444835e+000 3.623964e+000 -5.000000e-001
      endloop
   endfacet
   facet normal 0.000000e+000 0.000000e+000 -1.000000e+000
      outer loop
         vertex 5.000000e+000 1.836970e-015 -5.000000e-001
         vertex 3.444835e+000 3.623964e+000 -5.000000e-001
         vertex 4.974347e+000 5.058416e-001 -5.000000e-001
      endloop
   endfacet
   facet normal 0.000000e+000 0.000000e+000 -1.000000e+000
      outer loop
         vertex 4.974347e+000 5.058416e-001 -5.000000e-001
         vertex 3.444835e+000 3.623964e+000 -5.000000e-001
         vertex 3.793791e+000 3.256862e+000 -5.000000e-001
      endloop
   endfacet
   facet normal 0.000000e+000 0.000000e+000 -1.000000e+000
      outer loop
         vertex 4.974347e+000 5.058416e-001 -5.000000e-001
         vertex 3.793791e+000 3.256862e+000 -5.000000e-001
         vertex 4.103817e+000 2.856341e+000 -5.000000e-001
      endloop
   endfacet
   facet normal 0.000000e+000 0.000000e+000 -1.000000e+000
      outer loop
         vertex -2.532458e-001 -4.993583e+000 -5.000000e-001
         vertex -7.571389e-001 -4.942342e+000 -5.000000e-001
         vertex -4.897650e+000 1.006493e+000 -5.000000e-001
      endloop
   endfacet
   facet normal 0.000000e+000 0.000000e+000 -1.000000e+000
      outer loop
         vertex -4.897650e+000 1.006493e+000 -5.000000e-001
         vertex -7.571389e-001 -4.942342e+000 -5.000000e-001
         vertex -1.253263e+000 -4.840385e+000 -5.000000e-001
      endloop
   endfacet
   facet normal 0.000000e+000 0.000000e+000 -1.000000e+000
      outer loop
         vertex -4.897650e+000 1.006493e+000 -5.000000e-001
         vertex -1.253263e+000 -4.840385e+000 -5.000000e-001
         vertex -1.736526e+000 -4.688761e+000 -5.000000e-001
      endloop
   endfacet
   facet normal 0.000000e+000 0.000000e+000 -1.000000e+000
      outer loop
         vertex -3.444835e+000 -3.623964e+000 -5.000000e-001
         vertex -3.793791e+000 -3.256862e+000 -5.000000e-001
         vertex -3.060530e+000 -3.953879e+000 -5.000000e-001
      endloop
   endfacet
   facet normal 0.000000e+000 0.000000e+000 -1.000000e+000
      outer loop
         vertex -3.060530e+000 -3.953879e+000 -5.000000e-001
         vertex -3.793791e+000 -3.256862e+000 -5.000000e-001
         vertex -4.897650e+000 1.006493e+000 -5.000000e-001
      endloop
   endfacet
   facet normal 0.000000e+000 0.000000e+000 -1.000000e+000
      outer loop
         vertex -3.060530e+000 -3.953879e+000 -5.000000e-001
         vertex -4.897650e+000 1.006493e+000 -5.000000e-001
         vertex -2.644820e+000 -4.243221e+000 -5.000000e-001
      endloop
   endfacet
   facet normal 0.000000e+000 0.000000e+000 -1.000000e+000
      outer loop
         vertex -2.644820e+000 -4.243221e+000 -5.000000e-001
         vertex -4.897650e+000 1.006493e+000 -5.000000e-001
         vertex -1.736526e+000 -4.688761e+000 -5.000000e-001
      endloop
   endfacet
   facet normal 0.000000e+000 0.000000e+000 -1.000000e+000
      outer loop
         vertex -2.644820e+000 -4.243221e+000 -5.000000e-001
         vertex -1.736526e+000 -4.688761e+000 -5.000000e-001
         vertex -2.201971e+000 -4.489023e+000 -5.000000e-001
      endloop
   endfacet
   facet normal 0.000000e+000 0.000000e+000 -1.000000e+000
      outer loop
         vertex 3.060530e+000 3.953879e+000 -5.000000e-001
         vertex 3.444835e+000 3.623964e+000 -5.000000e-001
         vertex 2.644820e+000 4.243221e+000 -5.000000e-001
      endloop
   endfacet
   facet normal 0.000000e+000 0.000000e+000 -1.000000e+000
      outer loop
         vertex 2.644820e+000 4.243221e+000 -5.000000e-001
         vertex 3.444835e+000 3.623964e+000 -5.000000e-001
         vertex 4.897650e+000 -1.006493e+000 -5.000000e-001
      endloop
   endfacet
   facet normal 0.000000e+000 0.000000e+000 -1.000000e+000
      outer loop
         vertex 2.644820e+000 4.243221e+000 -5.000000e-001
         vertex 4.897650e+000 -1.006493e+000 -5.000000e-001
         vertex 2.201971e+000 4.489023e+000 -5.000000e-001
      endloop
   endfacet
   facet normal 0.000000e+000 0.000000e+000 -1.000000e+000
      outer loop
         vertex 2.201971e+000 4.489023e+000 -5.000000e-001
         vertex 4.897650e+000 -1.006493e+000 -5.000000e-001
         vertex 1.736526e+000 4.688761e+000 -5.000000e-001
      endloop
   endfacet
   facet normal 0.000000e+000 0.000000e+000 -1.000000e+000
      outer loop
         vertex 4.770696e+000 1.496816e+000 -5.000000e-001
         vertex 4.897650e+000 1.006493e+000 -5.000000e-001
         vertex 4.594789e+000 1.971779e+000 -5.000000e-001
      endloop
   endfacet
   facet normal 0.000000e+000 0.000000e+000 -1.000000e+000
      outer loop
         vertex 4.594789e+000 1.971779e+000 -5.000000e-001
         vertex 4.897650e+000 1.006493e+000 -5.000000e-001
         vertex 4.974347e+000 5.058416e-001 -5.000000e-001
      endloop
   endfacet
   facet normal 0.000000e+000 0.000000e+000 -1.000000e+000
      outer loop
         vertex 4.594789e+000 1.971779e+000 -5.000000e-001
         vertex 4.974347e+000 5.058416e-001 -5.000000e-001
         vertex 4.371733e+000 2.426510e+000 -5.000000e-001
      endloop
   endfacet
   facet normal 0.000000e+000 0.000000e+000 -1.000000e+000
      outer loop
         vertex 4.371733e+000 2.426510e+000 -5.000000e-001
         vertex 4.974347e+000 5.058416e-001 -5.000000e-001
         vertex 4.103817e+000 2.856341e+000 -5.000000e-001
      endloop
   endfacet
endsolid